<?xml version="1.0" standalone="no"?>
<!DOCTYPE svg PUBLIC "-//W3C//DTD SVG 1.1//EN" "http://www.w3.org/Graphics/SVG/1.1/DTD/svg11.dtd" >
<svg xmlns="http://www.w3.org/2000/svg" xmlns:xlink="http://www.w3.org/1999/xlink" version="1.1">
<metadata></metadata>
<defs>
<font id="titillium_webXLtIt" horiz-adv-x="1203" >
<font-face units-per-em="2048" ascent="1638" descent="-410" />
<missing-glyph horiz-adv-x="472" />
<glyph unicode="&#xd;" horiz-adv-x="715" />
<glyph unicode=" "  horiz-adv-x="472" />
<glyph unicode="&#x09;" horiz-adv-x="472" />
<glyph unicode="&#xa0;" horiz-adv-x="472" />
<glyph unicode="!" horiz-adv-x="444" d="M191 0l41 178h78l-41 -178h-78zM290 454l243 1052h71l-253 -1052h-61z" />
<glyph unicode="&#x22;" horiz-adv-x="681" d="M396 1045l103 457h75l-108 -457h-70zM695 1045l103 457h75l-108 -457h-70z" />
<glyph unicode="#" d="M152 408l18 70h258l120 486h-258l18 68h258l103 409h78l-104 -409h404l104 409h76l-102 -409h258l-18 -68h-257l-121 -486h258l-18 -70h-257l-100 -408h-76l98 408h-404l-98 -408h-78l99 408h-259zM505 478h404l121 486h-404z" />
<glyph unicode="$" d="M215 17l13 67q133 -19 267 -30l236 662q-152 45 -220 103.5t-68 180.5q0 217 136.5 329t370.5 112l39 -3l93 261h71l-95 -265q112 -8 208 -28l33 -6l-13 -62q-129 21 -252 32l-217 -605q154 -47 221.5 -105t67.5 -186q0 -226 -133.5 -359.5t-359.5 -133.5q-51 0 -77 2 l-87 -241h-66l85 245zM519 1000q0 -91 52.5 -133t183.5 -82l211 589h-30q-196 0 -306.5 -95t-110.5 -279zM559 49h67q189 0 295.5 114.5t106.5 307.5q0 101 -48.5 145t-185.5 83z" />
<glyph unicode="%" d="M353 1095.5q0 57.5 17 127.5q73 287 295 287q166 0 166 -164q0 -53 -18 -125q-37 -148 -115 -222t-180.5 -74t-143.5 73q-21 40 -21 97.5zM400 13l682 1495l69 -12l-683 -1494zM428 1112q0 -119 108 -119q77 0 125.5 57.5t71 146.5t22.5 137q0 107 -108 107 q-78 0 -125.5 -53.5t-70.5 -141t-23 -134.5zM727.5 171q-0.5 57 16.5 128q73 286 292 286q168 0 168 -164q0 -53 -18 -124q-36 -148 -114.5 -222.5t-180 -74.5t-142.5 74q-21 40 -21.5 97zM804 189q0 -121 103 -120q146 0 205 228q17 64 17 109q0 110 -109 111 q-78 0 -125.5 -53t-69 -141.5t-21.5 -133.5z" />
<glyph unicode="&#x26;" horiz-adv-x="1356" d="M178 306q0 227 104.5 359.5t351.5 222.5q-51 112 -51 202q0 197 102.5 316t284.5 119q261 0 260 -224q0 -338 -452 -503l289 -400q90 157 142 310h81q-59 -191 -172 -373l222 -290l-54 -51l-213 275q-217 -288 -514 -288q-191 0 -286 76t-95 249zM260 306 q-1 -252 299 -252q277 0 465 277l-353 492q-226 -80 -318.5 -200t-92.5 -317zM665 1111q0 -141 77 -253q214 82 310.5 187.5t96.5 257.5t-185 152q-147 0 -223 -101.5t-76 -242.5z" />
<glyph unicode="'" horiz-adv-x="382" d="M396 1045l103 457h75l-108 -457h-70z" />
<glyph unicode="(" horiz-adv-x="478" d="M217 159q0 256 48.5 473t117.5 383q144 345 257 520l50 74h75q-73 -112 -158.5 -284t-148 -330t-114 -374.5t-51.5 -377.5q0 -300 21 -458l8 -52h-70q-35 170 -35 426z" />
<glyph unicode=")" horiz-adv-x="476" d="M24 -254q74 111 159.5 284t148 331t114 373.5t51.5 377.5q0 299 -23 458l-8 51h72q34 -170 34 -425.5t-48 -473t-120 -382.5q-142 -344 -258 -521l-47 -73h-75z" />
<glyph unicode="*" horiz-adv-x="874" d="M392 985l236 172l-234 172l43 58l236 -174l90 277l70 -21l-91 -279h290v-74h-295l90 -277l-68 -22l-90 279l-236 -169z" />
<glyph unicode="+" d="M252 503v73h434v456h77v-456h439v-73h-439v-460h-77v460h-434z" />
<glyph unicode="," horiz-adv-x="406" d="M33 -277l184 455h86l-211 -455h-59z" />
<glyph unicode="-" horiz-adv-x="823" d="M275 542l18 75h524l-19 -75h-523z" />
<glyph unicode="." horiz-adv-x="384" d="M154 0l41 178h78l-41 -178h-78z" />
<glyph unicode="/" horiz-adv-x="829" d="M97 26l914 1480l71 -31l-914 -1477z" />
<glyph unicode="0" d="M228 359q0 183 42 364.5t119 345.5t209.5 268t313 104t286 -101t105.5 -297q0 -254 -74 -491.5t-233 -404t-358 -166.5t-304.5 97.5t-105.5 280.5zM306 372q0 -162 86 -241.5t232 -79.5t263 92.5t188 239.5q150 308 150 660q0 159 -85.5 243t-237 84t-270.5 -100 t-187 -255q-139 -318 -139 -643z" />
<glyph unicode="1" d="M550 1147l493 275h69l-324 -1422h-78l301 1320l-443 -243z" />
<glyph unicode="2" d="M150 0l16 64l632 523q203 166 307 292.5t104 259.5q0 232 -310 233q-168 0 -357 -38l-66 -16l4 67q221 58 419 58q387 0 387 -304q0 -150 -105.5 -284.5t-302.5 -292.5l-603 -491h798l-17 -71h-906z" />
<glyph unicode="3" d="M172 51l19 70q224 -70 412.5 -70t327 112t138.5 293q0 120 -72 190t-221 70h-281l18 72h281q133 0 264.5 102.5t131.5 253.5q0 121 -68 173.5t-189 52.5q-211 0 -391 -36l-60 -11l6 68q214 50 423 50q355 0 355 -282q0 -148 -90 -251.5t-224 -148.5q194 -73 194.5 -297 t-161.5 -352.5t-398 -128.5q-90 0 -194.5 17t-162.5 37z" />
<glyph unicode="4" d="M176 284l15 62l732 1074h88l-734 -1065h630l119 515h78l-119 -515h197l-16 -71h-198l-65 -284h-78l65 284h-714z" />
<glyph unicode="5" d="M164 45l21 69q234 -57 408 -58q215 0 367 156t152 379q0 107 -77.5 164.5t-221.5 57.5q-80 0 -182 -30t-165 -61l-62 -27l-71 9l219 716h788l-17 -72h-719l-178 -572q223 108 399 108q364 0 365 -293q0 -252 -176.5 -429t-428.5 -177q-172 0 -359 45z" />
<glyph unicode="6" d="M260 458q0 262 110 510q59 133 143 237t213.5 170t282.5 66q142 0 294 -31l47 -10l-19 -66q-176 36 -312.5 36t-229 -40t-156 -101t-116.5 -145q-87 -138 -134 -314q218 103 426 103t301.5 -86t93.5 -237q0 -256 -151.5 -412.5t-414.5 -156.5q-184 0 -281 123.5 t-97 353.5zM340 458q0 -407 296 -407q234 0 362.5 135.5t128.5 334.5q0 142 -72 211.5t-244 69.5q-91 0 -202.5 -26.5t-178.5 -53.5l-67 -27q-24 -71 -23 -237z" />
<glyph unicode="7" d="M357 10l873 1263l17 73h-755l17 74h837l-39 -162l-881 -1277z" />
<glyph unicode="8" d="M142 254q0 195 109.5 311t294.5 184q-111 43 -154 100.5t-43 147t31 161.5t96.5 137.5t186.5 105.5t283 40q428 0 428 -286q0 -127 -104 -247t-289 -159q139 -43 189.5 -110t50.5 -165q0 -41 -7.5 -87.5t-46 -124t-101 -135.5t-189 -102t-296.5 -44q-439 0 -439 273z M226 262q0 -98 96.5 -154.5t246 -56.5t245 29t155 73t100.5 101q73 97 72.5 206.5t-63.5 160t-210 89.5h-234q-170 -45 -289 -153t-119 -295zM426 1006q0 -162 226 -228h234q82 15 165.5 51.5t161 120.5t77.5 198t-85 168t-278 54q-267 0 -384 -106.5t-117 -257.5z" />
<glyph unicode="9" d="M168 26l29 68q177 -40 343 -40q443 0 595 586q-283 -90 -471 -90t-277 108q-57 70 -58 181q0 64 20 144q53 211 216.5 334.5t365.5 123.5q349 0 349 -398q0 -148 -53 -346q-96 -387 -273.5 -551.5t-432.5 -164.5q-150 0 -302 32zM413.5 841q-0.5 -73 44.5 -127 q73 -90 250 -90q133 0 371 68l78 24q43 181 43 312q0 340 -289 340q-172 0 -303.5 -103.5t-177.5 -281.5q-16 -69 -16.5 -142z" />
<glyph unicode=":" horiz-adv-x="384" d="M154 0l41 178h78l-41 -178h-78zM327 757l41 179h77l-41 -179h-77z" />
<glyph unicode=";" horiz-adv-x="468" d="M69 -277l185 455h86l-211 -455h-60zM374 757l41 179h77l-40 -179h-78z" />
<glyph unicode="&#x3c;" d="M217 501v78l912 464v-84l-841 -419l841 -419v-88z" />
<glyph unicode="=" d="M271 320v74h911v-74h-911zM271 684v73h911v-73h-911z" />
<glyph unicode="&#x3e;" d="M318 33v88l841 419l-841 419v84l912 -464v-78z" />
<glyph unicode="?" horiz-adv-x="866" d="M333 2l37 176h79l-38 -176h-78zM406 404q5 48 13 93q30 150 230 311.5t263.5 248.5t63.5 223q0 172 -258 171q-101 0 -258 -36l-54 -11v69q187 52 330.5 52t232.5 -59.5t89 -178.5t-36.5 -197.5t-103 -144t-232 -201t-189.5 -256.5l-17 -84h-74z" />
<glyph unicode="@" horiz-adv-x="1968" d="M197 189q0 162 51 373q125 535 387 757t744 222q193 0 331.5 -47t214.5 -126q135 -144 135 -402q0 -135 -42 -319.5t-88 -308t-88 -193t-99 -107.5t-104 -48.5t-117 -10.5q-182 0 -188 138q-271 -136 -413 -136q-177 0 -222 122q-21 60 -21.5 102.5t-0.5 78.5 q2 45 20 142q117 669 548 668q134 0 349 -43q-187 -733 -188 -897q0 -66 29.5 -84.5t93 -18.5t101.5 11.5t82.5 46.5t80.5 102q80 142 151 449q40 179 40 284t-25.5 202t-91.5 165q-150 155 -506 156q-429 0 -668 -204.5t-362 -700.5q-52 -216 -52 -333.5t22.5 -219 t94.5 -181.5q157 -177 535 -177l292 22l-10 -77q-203 -19 -331.5 -19t-254.5 32t-204.5 84.5t-129.5 132.5q-95 144 -96 363zM755 269q0 -211 181 -211q148 0 398 131q4 54 61.5 323.5t110.5 480.5q-129 33 -271 33q-189 0 -294.5 -148.5t-168.5 -454.5q-17 -88 -17 -154z " />
<glyph unicode="A" horiz-adv-x="1194" d="M69 0l797 1506h192l81 -1506h-76l-27 464h-642l-246 -464h-79zM433 533h599l-45 901h-78z" />
<glyph unicode="B" horiz-adv-x="1246" d="M185 0l346 1506h462q175 0 258 -62.5t83 -223t-88.5 -280t-215.5 -160.5q207 -53 207 -257q0 -248 -147.5 -385.5t-416.5 -137.5h-488zM279 71h411q221 0 343 120.5t122 329.5q0 123 -85 169.5t-235 46.5h-402zM447 808h405q178 0 290 121.5t112 297.5q0 119 -63.5 163 t-211.5 44h-388z" />
<glyph unicode="C" horiz-adv-x="1096" d="M260 408q0 308 118 592q133 322 357 453q127 72 274 72q160 0 298 -31l52 -10l-17 -69q-185 37 -339 37h-4q-156 0 -286 -102.5t-210 -261.5q-161 -327 -161 -676q0 -186 78.5 -272t248.5 -86q164 0 301 30l50 10l-3 -70q-186 -43 -359 -43q-398 0 -398 427z" />
<glyph unicode="D" horiz-adv-x="1307" d="M185 0l348 1506h491q195 0 280 -108t85 -305.5t-43 -378.5t-124 -343t-219 -266.5t-308 -104.5h-510zM281 71h433q138 0 254 98t187.5 249.5t111.5 321t40 344t-67.5 262.5t-230.5 88h-416z" />
<glyph unicode="E" horiz-adv-x="1096" d="M185 0l348 1506h811l-17 -72h-734l-144 -626h614l-18 -71h-612l-154 -666h734l-18 -71h-810z" />
<glyph unicode="F" horiz-adv-x="1042" d="M185 0l348 1506h790l-18 -72h-712l-156 -683h617l-18 -72h-617l-157 -679h-77z" />
<glyph unicode="G" horiz-adv-x="1235" d="M260 376q0 335 116 626q60 150 145.5 266.5t213 186.5t278.5 70q170 0 359 -41l58 -13l-22 -65q-219 47 -413 47q-131 0 -240.5 -68.5t-184.5 -180.5t-127 -254q-101 -269 -101 -574q0 -325 346 -325q135 0 293 35l53 13l134 574h-284l17 71h361l-163 -703 q-220 -60 -415 -60q-424 0 -424 395z" />
<glyph unicode="H" horiz-adv-x="1346" d="M185 0l348 1506h78l-166 -716h821l166 716h78l-349 -1506h-77l166 718h-822l-166 -718h-77z" />
<glyph unicode="I" horiz-adv-x="446" d="M185 0l348 1506h78l-349 -1506h-77z" />
<glyph unicode="J" horiz-adv-x="543" d="M15 -152l13 70q162 0 215.5 58.5t102.5 273.5l290 1256h78l-295 -1276q-31 -131 -52 -193.5t-65 -112t-108.5 -63t-178.5 -13.5z" />
<glyph unicode="K" horiz-adv-x="1092" d="M185 0l348 1506h78l-170 -728h236l624 728h92l-653 -762l305 -744h-81l-289 708h-249l-164 -708h-77z" />
<glyph unicode="L" horiz-adv-x="948" d="M185 0l348 1506h78l-332 -1435h667l-17 -71h-744z" />
<glyph unicode="M" horiz-adv-x="1664" d="M185 0l348 1506h157l155 -1389l826 1389h157l-349 -1506h-77l334 1434h-29l-821 -1389h-98l-164 1389h-31l-331 -1434h-77z" />
<glyph unicode="N" horiz-adv-x="1326" d="M185 0l348 1506h175l322 -1435h52l331 1435h77l-349 -1506h-169l-325 1434h-54l-331 -1434h-77z" />
<glyph unicode="O" horiz-adv-x="1367" d="M262 438q0 257 91.5 515t259 415t390 157t334.5 -108t112 -335q0 -288 -92.5 -552.5t-262 -406.5t-398 -142t-331.5 100t-103 357zM342 421q0 -202 84.5 -286t268 -84t314.5 97q174 131 266.5 397t92.5 539q0 191 -91 280t-259.5 89t-295.5 -92q-178 -131 -279 -404 t-101 -536z" />
<glyph unicode="P" horiz-adv-x="1176" d="M185 0l348 1506h501q312 0 312 -312q0 -273 -138.5 -458.5t-396.5 -185.5h-421l-128 -550h-77zM406 624h421q216 0 326.5 165t110.5 405q0 121 -57.5 179.5t-189.5 58.5h-424z" />
<glyph unicode="Q" horiz-adv-x="1367" d="M262 438q0 257 91.5 515t259 415t390 157t334.5 -108t112 -335q0 -288 -92 -553q-123 -351 -383 -488l103 -316l-73 -24l-101 309q-90 -29 -187 -29q-248 0 -351 100t-103 357zM342 421q0 -202 84.5 -286t268 -84t314.5 97q174 131 266.5 397t92.5 539q0 191 -91 280 t-259.5 89t-295.5 -92q-178 -131 -279 -404t-101 -536z" />
<glyph unicode="R" horiz-adv-x="1221" d="M185 0l348 1506h478q172 0 256.5 -74.5t84.5 -227.5t-41 -260t-107 -170q-125 -119 -268 -146l191 -628h-78l-189 620h-454l-144 -620h-77zM421 690h402q203 0 325 135.5t122 358.5q0 138 -65.5 194t-211.5 56h-400z" />
<glyph unicode="S" horiz-adv-x="1079" d="M129 17l15 71q254 -37 436.5 -37t295.5 122t113 326q0 107 -53.5 153.5t-226.5 95t-256 111t-83 199.5q0 228 145 347.5t392 119.5q142 0 314 -35l54 -11l-13 -64q-219 38 -370 38q-208 0 -325.5 -99.5t-117.5 -295.5q0 -102 66 -147t240 -96.5t245 -114t71 -199.5 q0 -239 -140.5 -379.5t-380.5 -140.5q-182 0 -357 27z" />
<glyph unicode="T" horiz-adv-x="1024" d="M353 1434l17 72h976l-17 -72h-449l-332 -1434h-77l331 1434h-449z" />
<glyph unicode="U" horiz-adv-x="1274" d="M277 445l246 1061h77l-245 -1061q-22 -90 -22 -166q0 -225 340 -225q193 0 298.5 91t148.5 281l250 1080h77l-249 -1083q-51 -223 -175 -332.5t-335 -109.5q-432 0 -432 295q0 83 21 169z" />
<glyph unicode="V" horiz-adv-x="1156" d="M406 1506h78l43 -1435h116l707 1435h78l-740 -1506h-232z" />
<glyph unicode="W" horiz-adv-x="1730" d="M368 0l51 1506h78l-54 -1435h76l640 1413h82l-20 -1413h72l619 1435h77l-649 -1506h-191l21 1336l-606 -1336h-196z" />
<glyph unicode="X" horiz-adv-x="1094" d="M43 0l634 753l-266 753h77l249 -691l568 691h95l-632 -766l268 -740h-77l-249 679l-572 -679h-95z" />
<glyph unicode="Y" horiz-adv-x="1042" d="M383 1506h77l221 -777l581 777h86l-647 -859l-151 -647h-76l152 663z" />
<glyph unicode="Z" horiz-adv-x="1069" d="M84 0l37 160l1100 1212l16 62h-816l18 72h892l-38 -168l-1102 -1213l-13 -54h815l-17 -71h-892z" />
<glyph unicode="[" horiz-adv-x="636" d="M109 -262l439 1868h373l-16 -71h-298l-407 -1726h299l-19 -71h-371z" />
<glyph unicode="\" horiz-adv-x="831" d="M408 1477l82 31l280 -1478l-82 -30z" />
<glyph unicode="]" horiz-adv-x="636" d="M28 -260l15 71h299l407 1726h-300l19 72h371l-439 -1869h-372z" />
<glyph unicode="^" d="M338 695l386 725h78l407 -725h-87l-359 647l-340 -647h-85z" />
<glyph unicode="_" horiz-adv-x="1381" d="M152 -252l18 82h965l-21 -82h-962z" />
<glyph unicode="`" horiz-adv-x="1113" d="M654 1496l38 55l344 -205l-38 -47z" />
<glyph unicode="a" horiz-adv-x="1036" d="M264.5 632q59.5 189 187 325.5t290.5 136.5q110 0 309 -31l67 -12l-164 -700q-24 -99 -53 -291l-9 -58l-71 -4q37 224 47 273q-8 -11 -22.5 -31.5t-61.5 -69.5t-93 -88t-109.5 -70t-119.5 -31q-257 0 -257 271q0 191 59.5 380zM284 254q0 -101 45 -152t149 -51 q116 0 316 220q45 49 70 86l26 35l140 601q-157 33 -293.5 33t-245 -130.5t-158 -302.5t-49.5 -339z" />
<glyph unicode="b" horiz-adv-x="1034" d="M164 24l357 1546h74l-156 -675q13 14 65 58.5t93 70.5q111 70 216 70q154 0 209 -78t55 -236q0 -170 -73 -372q-41 -111 -100 -206t-154.5 -158t-211.5 -63q-125 0 -312 32zM252 82q185 -33 295.5 -33t207.5 90.5t144 217.5q99 260 99 404t-40 203.5t-166 59.5 q-74 0 -167.5 -58.5t-150.5 -118.5l-59 -57z" />
<glyph unicode="c" horiz-adv-x="866" d="M213 277q0 469 249 695q133 122 318 122q103 0 201 -17l34 -6l-20 -67q-122 21 -215 22q-162 0 -275 -110q-212 -208 -212 -628q0 -121 61 -180t198 -59q80 0 205 31l43 10v-69q-141 -40 -258 -40h-6q-323 0 -323 296z" />
<glyph unicode="d" horiz-adv-x="1034" d="M205 252q0 193 61 382t187 324.5t284 135.5q136 0 265 -25l43 -9l118 510h76l-363 -1570h-74l56 245q-9 -11 -23 -29.5t-59 -63.5t-90.5 -79t-111 -63t-125.5 -29q-244 0 -244 271zM284 252q0 -203 187 -203q52 0 114 34t114 81q105 96 161 171l26 35l144 623 q-150 33 -290 33t-248.5 -130.5t-158 -303.5t-49.5 -340z" />
<glyph unicode="e" horiz-adv-x="971" d="M209 279.5q0 141.5 35 281.5t103 261.5t180.5 196.5t254.5 75q280 0 281 -221q0 -183 -149 -259t-458 -76h-136q-32 -130 -32 -243.5t63.5 -177t155.5 -63.5q160 0 320 47l53 16v-72q-185 -64 -371 -64q-137 0 -218.5 78.5t-81.5 220zM335 607h141q264 0 386.5 56.5 t122.5 209.5t-205 153q-314 0 -445 -419z" />
<glyph unicode="f" horiz-adv-x="638" d="M80 -495l346 1501h-138l18 69h135l30 127q52 213 131 300t217 87q62 0 140 -13l26 -4l-17 -66q-90 14 -178.5 14t-143.5 -71.5t-100 -250.5l-29 -123h330l-20 -69h-324l-234 -1006l-127 -495h-62z" />
<glyph unicode="g" horiz-adv-x="983" d="M51 -240q0 193 300 354q-29 25 -29 73.5t28 101.5t54 85l29 30q-151 60 -152 250q0 160 115.5 300t311.5 140q105 0 170 -31l320 12l-18 -75h-236q54 -70 54 -156.5t-26 -160.5t-77.5 -143t-144 -113t-208.5 -44l-56 4q-88 -114 -88 -184q0 -43 40 -60.5t196 -35 t226.5 -72t70.5 -168.5q0 -151 -152.5 -265.5t-398.5 -114.5q-150 0 -239.5 77t-89.5 196zM131 -233q0 -91 69 -151.5t198 -60.5q187 0 320.5 89t133.5 223q0 84 -55 119t-195 49t-196 39q-113 -57 -194 -136.5t-81 -170.5zM359 658q0 -206 200 -206q92 0 165.5 37.5 t114.5 95.5q82 111 82 222t-51 165t-171 54q-154 0 -247 -120.5t-93 -247.5z" />
<glyph unicode="h" horiz-adv-x="1051" d="M160 0l363 1570h74l-171 -743q213 267 399 267q117 0 182.5 -66.5t65.5 -180.5t-43 -295l-129 -552h-74l130 554q41 168 41 271q0 198 -185 199q-54 0 -116.5 -32.5t-111.5 -80.5q-99 -92 -164 -174l-23 -31l-164 -706h-74z" />
<glyph unicode="i" horiz-adv-x="390" d="M158 0l248 1075h76l-250 -1075h-74zM474 1372l29 130h78l-31 -130h-76z" />
<glyph unicode="j" horiz-adv-x="390" d="M-213 -449q211 105 267 172.5t104 276.5l248 1075h76l-250 -1075q-58 -248 -122.5 -326t-296.5 -187zM480 1381l27 125h76l-29 -125h-74z" />
<glyph unicode="k" horiz-adv-x="926" d="M160 0l363 1570h74l-217 -940h182l466 445h99l-507 -486l242 -589h-84l-234 562h-181l-129 -562h-74z" />
<glyph unicode="l" horiz-adv-x="418" d="M172 0l364 1570h75l-363 -1570h-76z" />
<glyph unicode="m" horiz-adv-x="1664" d="M158 0l248 1075h76l-56 -242q210 261 396 261h1q66 0 115 -22.5t73 -54.5q47 -69 52 -118l2 -21q21 24 56.5 60t134 96t199 60t166 -66.5t65.5 -175t-43 -300.5l-129 -552h-76l130 554q41 168 41 269.5t-49.5 151t-130.5 49.5t-170 -60.5t-141 -120.5l-51 -58 q-2 -81 -39 -233l-129 -552h-76l129 554q41 168 41 270.5t-48 151t-118 48.5t-132.5 -32.5t-113.5 -80.5q-105 -96 -160 -169l-23 -32l-166 -710h-74z" />
<glyph unicode="n" horiz-adv-x="1048" d="M158 0l248 1075h76l-56 -242q210 261 396 261h1q117 0 182.5 -66.5t65.5 -177t-41 -291.5l-131 -559h-74l129 554q41 168 41 271q0 198 -184 199q-54 0 -116.5 -32.5t-113.5 -80.5q-105 -96 -160 -169l-23 -32l-166 -710h-74z" />
<glyph unicode="o" horiz-adv-x="1059" d="M213 299q0 335 155 565t383 230q339 0 339 -335q0 -333 -152.5 -555.5t-395.5 -222.5q-329 0 -329 318zM290 299q0 -250 252 -250q209 0 340 205.5t131 502.5q0 123 -65.5 196t-196.5 73q-200 0 -330.5 -214.5t-130.5 -512.5z" />
<glyph unicode="p" horiz-adv-x="1032" d="M43 -495l363 1570h74l-57 -244q9 10 23 28.5t58 63.5t88 79t107.5 63t119.5 29q258 0 258 -283q0 -181 -59 -367t-185.5 -324.5t-288.5 -138.5q-142 0 -265 27l-43 9l-117 -512h-76zM252 84q150 -35 273.5 -35t214.5 78t144 195q114 252 114 489q0 213 -181 213 q-90 0 -192 -80t-165 -159l-64 -79z" />
<glyph unicode="q" horiz-adv-x="1029" d="M340 804q64 127 168.5 208.5t226.5 81.5q131 0 319 -31l62 -12l-353 -1525h-73l164 717q-210 -262 -395 -262h-1q-255 0 -255 275q0 282 137 548zM281 290q0 -136 46.5 -187.5t150.5 -51.5q49 0 109 33t110 80q105 96 163 171l24 33l144 625q-146 33 -287 33t-249.5 -129 t-159.5 -300t-51 -307z" />
<glyph unicode="r" horiz-adv-x="653" d="M158 0l250 1075h74l-37 -164q215 136 423 185l-16 -74q-138 -35 -353 -149l-71 -36l-194 -837h-76z" />
<glyph unicode="s" horiz-adv-x="917" d="M117 15l14 69q193 -35 333 -35t245.5 75.5t105.5 221.5q0 82 -50.5 112t-201 63t-213 75t-62.5 139q0 152 114.5 255.5t294.5 103.5q119 0 279 -23l54 -6l-19 -67q-191 28 -330 28t-227.5 -82t-88.5 -195q0 -64 45.5 -95.5t197 -65.5t218 -78t66.5 -149 q0 -183 -130 -281.5t-325 -98.5q-123 0 -271 25z" />
<glyph unicode="t" horiz-adv-x="667" d="M299 392l144 614h-157l17 69h159l84 349h76l-86 -349h350l-18 -69h-349l-145 -614q-32 -138 -32 -216q0 -127 138 -127l180 15l-4 -66q-109 -17 -188 -17q-206 0 -206 183q0 82 37 228z" />
<glyph unicode="u" horiz-adv-x="1048" d="M226 224.5q0 110.5 41 292.5l131 558h73l-129 -554q-41 -168 -41 -269.5t49.5 -151t119.5 -49.5t132.5 33t111.5 80q107 96 162 169l23 32l166 710h74l-249 -1075h-75l55 243q-210 -262 -395 -262h-1q-115 0 -181.5 66.5t-66.5 177z" />
<glyph unicode="v" horiz-adv-x="962" d="M316 1075h78l49 -1006h86l534 1006h81l-572 -1075h-202z" />
<glyph unicode="w" horiz-adv-x="1526" d="M322 1075h76l13 -1006h34l507 985h97l43 -985h37l488 1006h80l-521 -1075h-159l-36 961l-489 -961h-154z" />
<glyph unicode="x" horiz-adv-x="883" d="M58 0l459 538l-205 537h82l185 -488l408 488h92l-464 -544l202 -531h-84l-179 480l-404 -480h-92z" />
<glyph unicode="y" horiz-adv-x="962" d="M230 -490l265 490h-125l-54 1075h78l49 -1006h86l534 1006h81l-832 -1565h-82z" />
<glyph unicode="z" horiz-adv-x="903" d="M88 0l6 69l860 937h-636l17 69h730l-11 -69l-861 -937h640l-16 -69h-729z" />
<glyph unicode="{" horiz-adv-x="706" d="M207 628l17 76q141 38 196.5 98t80.5 189l18 93q21 131 43 198q53 166 152 243t279 86l-12 -78q-170 -8 -252 -82t-114 -230l-21 -122.5t-24 -124.5q-30 -139 -87 -202.5t-175 -102.5q137 -49 137 -187q0 -39 -53.5 -227.5t-53.5 -262.5q0 -179 234 -179l-22 -78 q-150 7 -219 64t-69 153.5t54 285t54 220.5q0 73 -38.5 111t-124.5 59z" />
<glyph unicode="|" horiz-adv-x="636" d="M404 -495v2065h76v-2065h-76z" />
<glyph unicode="}" horiz-adv-x="706" d="M24 -271l13 78q170 8 251.5 82t113.5 230q6 34 21.5 122t23.5 124q31 140 87.5 203.5t175.5 102.5q-138 49 -138 187q0 39 53.5 227t53.5 263q0 179 -234 179l21 77q150 -6 219.5 -63t69.5 -154t-54 -285t-54 -220q0 -74 38.5 -111.5t125.5 -58.5l-17 -76 q-142 -39 -197 -98.5t-80 -188.5q-7 -31 -18 -95q-21 -129 -43 -196q-54 -166 -152.5 -243t-279.5 -86z" />
<glyph unicode="~" d="M281 570q134 117 242 116q64 0 222 -78.5t197 -78.5t93.5 28t91.5 56l39 27l24 -66q-135 -118 -242 -118q-64 0 -222 78.5t-197 78.5t-94 -28.5t-91 -55.5l-38 -28z" />
<glyph unicode="&#xa1;" horiz-adv-x="406" d="M69 -430l253 1052h61l-243 -1052h-71zM363 897l41 178h78l-41 -178h-78z" />
<glyph unicode="&#xa2;" d="M349 344q0 82 27 187q58 222 176.5 337t284.5 119l66 281h71l-67 -279l230 -21l-21 -76q-191 22 -269 22q-146 0 -246 -102t-143 -281q-29 -133 -28.5 -201t56.5 -117t185 -49l288 17l-19 -74q-121 -15 -241 -15l-65 -273h-72l64 269q-277 0 -277 256z" />
<glyph unicode="&#xa3;" d="M178 0l17 71h207l166 731h-155l17 71h155l30 133q29 119 52 187.5t64 137.5q80 130 275 130q119 0 233 -18l43 -7l-16 -64q-159 17 -242.5 17t-122.5 -10.5t-68 -41t-47 -55t-37 -82.5q-21 -64 -57 -202l-29 -125h470l-17 -71h-471l-163 -731h363l175 34v-66l-175 -39 h-667z" />
<glyph unicode="&#xa4;" d="M288 162l153 150q-82 99 -82 229t82 231l-153 151l56 56l151 -154q98 82 229.5 82t229.5 -82l152 154l55 -56l-152 -151q82 -101 81.5 -231t-81.5 -229l152 -150l-55 -57l-152 153q-98 -82 -228.5 -82t-230.5 82l-151 -153zM439 542q0 -121 82 -204q83 -82 203.5 -82 t204.5 82q82 84 82 204.5t-82 204.5q-84 81 -204.5 80.5t-203.5 -80.5q-82 -84 -82 -205z" />
<glyph unicode="&#xa5;" d="M232 394l18 70h413l49 211l-11 39h-393l16 71h349l-254 637h82l264 -669l573 669h98l-550 -637h337l-14 -71h-384l-35 -43l-48 -207h409l-18 -70h-409l-92 -394h-76l91 394h-415z" />
<glyph unicode="&#xa6;" horiz-adv-x="657" d="M415 314h75v-809h-75v809zM415 761v809h75v-809h-75z" />
<glyph unicode="&#xa7;" horiz-adv-x="987" d="M97 -234l24 76q219 -30 328 -29q158 0 250.5 107.5t92.5 221.5q0 71 -47.5 102t-202.5 52.5t-220.5 80t-65.5 144.5t44 170.5t87 129.5l46 45q-43 62 -43 154q0 163 118 280.5t327 117.5q94 0 259 -23l50 -6l-22 -78q-208 29 -305 29q-166 0 -252.5 -86t-86.5 -230 q0 -88 48 -118t188 -54q281 -46 281 -218q0 -71 -39.5 -160t-77.5 -143l-39 -54q37 -43 37 -108.5t-22.5 -129t-69.5 -134.5t-139.5 -119t-211.5 -48q-125 0 -279 22zM335 545.5q0 -67.5 53 -109.5t194.5 -62.5t205.5 -57.5q133 179 133 299q0 62 -54 100t-202 62.5 t-181 53.5q-17 -17 -42 -44.5t-66 -100.5t-41 -140.5z" />
<glyph unicode="&#xa8;" horiz-adv-x="1699" d="M559 1361l32 141h63l-32 -141h-63zM936 1361l28 141h62l-33 -141h-57z" />
<glyph unicode="&#xa9;" horiz-adv-x="1389" d="M361 933.5q0 238.5 157 405.5t391.5 167t393 -167t158.5 -405.5t-158.5 -404.5t-393 -166t-391.5 166t-157 404.5zM430 933q0 -211 137 -355.5t343 -144.5t343.5 144.5t137.5 355.5t-137.5 357t-343.5 146t-343 -146t-137 -357zM675 932q0 162 49.5 246t184.5 84 q84 0 138 -10l22 -5l-2 -69q-88 15 -158 16q-105 0 -135 -60.5t-30 -198t34.5 -200t130.5 -62.5l158 17l2 -68q-94 -18 -160 -18q-133 0 -183.5 83t-50.5 245z" />
<glyph unicode="&#xaa;" horiz-adv-x="760" d="M346 940q0 32 7 62q19 80 65 118.5t134 45.5l220 14l13 50q7 30 7 55.5t-14.5 46t-71.5 20.5l-226 -14l8 62q152 16 239 18q137 0 137 -115q0 -33 -10 -76l-69 -294q13 -34 67 -45l-17 -57q-66 2 -106 47q-146 -47 -267 -47q-66 0 -97 47q-19 30 -19 62zM419 957 q0 -60 67 -60q86 0 193 28l35 11l43 182l-205 -12q-103 -7 -126 -108q-7 -25 -7 -41z" />
<glyph unicode="&#xab;" horiz-adv-x="907" d="M211 519l17 47l406 275l-25 -88l-310 -217l202 -237l-23 -75zM533 519l17 47l407 275l-26 -88l-309 -217l201 -237l-23 -75z" />
<glyph unicode="&#xac;" d="M279 640v74h907v-443h-76v369h-831z" />
<glyph unicode="&#xad;" horiz-adv-x="823" d="M275 542l18 75h524l-19 -75h-523z" />
<glyph unicode="&#xae;" horiz-adv-x="1389" d="M361 933.5q0 238.5 157 405.5t391.5 167t393 -167t158.5 -405.5t-158.5 -404.5t-393 -166t-391.5 166t-157 404.5zM430 933q0 -211 137 -355.5t343 -144.5t343.5 144.5t137.5 355.5t-137.5 357t-343.5 146t-343 -146t-137 -357zM690 615v635h200q127 0 185 -43.5 t58 -148.5q0 -154 -127 -188l141 -255h-78l-136 249h-174v-249h-69zM759 931h172q74 0 104 28t30 99t-41 97.5t-132 26.5h-133v-251z" />
<glyph unicode="&#xaf;" horiz-adv-x="911" d="M509 1391l14 56h544l-16 -56h-542z" />
<glyph unicode="&#xb0;" d="M591 1232q0 131 81 212t212 81t211.5 -81t80.5 -212t-80.5 -210.5t-211.5 -79.5t-212 79.5t-81 210.5zM665 1232.5q0 -101.5 60 -161.5t160 -60t161.5 61t61.5 161.5t-61.5 161t-161.5 60.5t-160 -60.5t-60 -162z" />
<glyph unicode="&#xb1;" d="M226 107v74h950v-74h-950zM226 663v72h434v297h77v-297h439v-72h-439v-310h-77v310h-434z" />
<glyph unicode="&#xb2;" horiz-adv-x="601" d="M316 1028l17 73l267 224q174 144 174 247q0 73 -101 73q-66 0 -166 -20l-33 -6l12 71q119 29 209 28q162 0 161 -120q0 -103 -76 -192q-49 -56 -140 -131l-205 -174h318l-18 -73h-419z" />
<glyph unicode="&#xb3;" horiz-adv-x="601" d="M312 1032l23 69q111 -18 219 -19q136 0 166 124q7 29 7 50q0 82 -101 82h-140l17 72h140q38 0 84 41q64 56 65 127q0 28 -18.5 47.5t-74.5 19.5q-84 0 -192 -15l-31 -5l10 70q121 24 221.5 23.5t134.5 -33.5t34 -70t-10 -68q-31 -123 -146 -168q93 -31 93 -99 q0 -28 -11 -71q-49 -200 -266 -200q-106 0 -192 17z" />
<glyph unicode="&#xb4;" horiz-adv-x="1153" d="M626 1365l437 205l12 -64l-439 -195z" />
<glyph unicode="&#xb5;" d="M114 -495l221 959l26 106l119 505h72l-115 -494h2l-35 -148q-21 -107 -21 -195t49.5 -137.5t119.5 -49.5t132.5 33t111.5 80q107 96 161 169l24 32l166 710h74l-249 -1075h-75l55 243q-211 -263 -388 -262.5t-235 130.5l-140 -606h-75z" />
<glyph unicode="&#xb6;" horiz-adv-x="1184" d="M320 1034q0 172 138.5 322t337.5 150h665l-16 -78h-198l-340 -1428h-72l339 1428h-308l-341 -1428h-73l182 751q-157 2 -235.5 82.5t-78.5 200.5z" />
<glyph unicode="&#xb7;" horiz-adv-x="390" d="M288 581l39 178h81l-38 -178h-82z" />
<glyph unicode="&#xb8;" horiz-adv-x="1699" d="M701 -419l17 66q88 -8 158 -8q96 0 119 94q5 15 5 31q0 58 -79 58h-110l45 188h69l-33 -124h11q170 0 170 -112q0 -19 -4 -41q-37 -161 -205 -161z" />
<glyph unicode="&#xb9;" horiz-adv-x="601" d="M454 1555l247 144h77l-165 -671h-77l145 587l-205 -121z" />
<glyph unicode="&#xba;" horiz-adv-x="728" d="M368 1002q0 57 15 120q39 158 110.5 225.5t196.5 67.5q183 0 183 -168q0 -59 -17 -139q-62 -284 -304 -285q-184 0 -184 179zM443 1015q0 -114 125 -114q88 0 137.5 50.5t76.5 170.5q13 54 13.5 111t-27.5 81t-104.5 24t-127 -48.5t-78.5 -167.5q-15 -59 -15 -107z" />
<glyph unicode="&#xbb;" horiz-adv-x="1040" d="M197 224l27 88l309 217l-202 236l24 76l267 -295l-18 -47zM654 224l25 88l310 217l-201 236l23 76l266 -295l-17 -47z" />
<glyph unicode="&#xbc;" horiz-adv-x="1219" d="M240 26l915 1480l70 -31l-913 -1477zM411 1555l247 144h77l-165 -671h-78l146 587l-205 -121zM712 123l17 68l309 480h87l-306 -476h224l47 188h78l-48 -188h80l-18 -72h-78l-31 -123h-78l31 123h-314z" />
<glyph unicode="&#xbd;" horiz-adv-x="1283" d="M240 26l915 1480l70 -31l-913 -1477zM411 1555l247 144h77l-165 -671h-78l146 587l-205 -121zM774 0l18 74l266 223q175 144 175 245q0 75 -102 75q-66 0 -167 -20l-33 -6l13 72q119 28 209 27q162 0 161 -120q0 -103 -75 -192q-49 -56 -140 -130l-207 -174h319l-17 -74 h-420z" />
<glyph unicode="&#xbe;" horiz-adv-x="1276" d="M303 26l914 1480l71 -31l-914 -1477zM327 1032l24 69q111 -18 219 -19q136 0 165 124q6 29 7 50q0 82 -102 82h-139l18 72h139q39 0 86 41q62 56 62 127q0 28 -18 47.5t-74 19.5q-84 0 -193 -15l-31 -5l11 70q121 24 221.5 23.5t134 -33.5t33.5 -70t-8 -68 q-33 -119 -147 -168q92 -31 92 -99q0 -28 -10 -71q-49 -200 -267 -200q-105 0 -191 17zM774 123l18 68l309 480h85l-304 -476h224l47 188h77l-48 -188h80l-17 -72h-79l-31 -123h-77l30 123h-314z" />
<glyph unicode="&#xbf;" horiz-adv-x="840" d="M45 -209.5q0 119.5 37 197.5t103.5 143.5t232 201t189.5 256.5l17 84h73q-4 -47 -13 -92q-31 -151 -230.5 -312.5t-263 -248t-63.5 -223.5q0 -172 258 -171q101 0 260 34l52 13v-69q-187 -51 -330 -51t-232.5 59t-89.5 178.5zM654 899l38 176h78l-37 -176h-79z" />
<glyph unicode="&#xc0;" horiz-adv-x="1194" d="M69 0l797 1506h192l81 -1506h-76l-27 464h-642l-246 -464h-79zM433 533h599l-45 901h-78zM716 1914l37 58l343 -209l-31 -47z" />
<glyph unicode="&#xc1;" horiz-adv-x="1194" d="M69 0l797 1506h192l81 -1506h-76l-27 464h-642l-246 -464h-79zM433 533h599l-45 901h-78zM866 1770l439 206l20 -62l-441 -198z" />
<glyph unicode="&#xc2;" horiz-adv-x="1194" d="M69 0l797 1506h192l81 -1506h-76l-27 464h-642l-246 -464h-79zM433 533h599l-45 901h-78zM697 1727l335 275h31l207 -275h-72l-157 208l-256 -208h-88z" />
<glyph unicode="&#xc3;" horiz-adv-x="1194" d="M69 0l797 1506h192l81 -1506h-76l-27 464h-642l-246 -464h-79zM433 533h599l-45 901h-78zM673 1843q142 123 199 123t164.5 -68t131.5 -68q41 0 141 82l35 27l8 -53q-135 -123 -187.5 -123t-161 68.5t-133.5 68.5q-38 0 -156 -90l-39 -27z" />
<glyph unicode="&#xc4;" horiz-adv-x="1194" d="M69 0l797 1506h192l81 -1506h-76l-27 464h-642l-246 -464h-79zM433 533h599l-45 901h-78zM780 1787l31 142h65l-37 -142h-59zM1166 1787l34 142h62l-35 -142h-61z" />
<glyph unicode="&#xc5;" horiz-adv-x="1194" d="M69 0l774 1461q-51 32 -51 98q0 29 10 64q52 191 232 192q86 0 125 -48q24 -30 23.5 -68.5t-8.5 -75.5q-31 -114 -114 -160l79 -1463h-76l-27 464h-642l-246 -464h-79zM433 533h599l-45 901h-78zM854 1582q0 -57 49 -76h114q78 26 101 117q4 22 4 39q0 90 -102 90 q-130 0 -162 -129q-4 -21 -4 -41z" />
<glyph unicode="&#xc6;" horiz-adv-x="1713" d="M69 0l795 1506h1100l-13 -72l-738 4l-153 -630h617l-13 -71h-617l-157 -666h733l-12 -71h-811l105 462h-515l-246 -462h-75zM423 531h498l218 903h-240z" />
<glyph unicode="&#xc7;" horiz-adv-x="1096" d="M260 408q0 308 118 592q133 322 357 453q127 72 274 72q160 0 298 -31l52 -10l-17 -69q-187 37 -343 36.5t-286 -102.5t-210 -261q-162 -329 -161 -680q0 -182 78.5 -268t248.5 -86q164 0 301 30l50 10l-3 -70q-186 -43 -359 -43h-4l-24 -95h10q171 0 171 -112 q0 -19 -5 -41q-36 -161 -204 -161l-163 9l17 66q88 -8 157 -8q97 0 120 94q4 15 4 31q0 58 -79 58h-110l39 163q-327 35 -327 423z" />
<glyph unicode="&#xc8;" horiz-adv-x="1096" d="M185 0l348 1506h811l-17 -72h-734l-144 -626h614l-18 -71h-612l-154 -666h734l-18 -71h-810zM804 1914l37 58l343 -209l-31 -47z" />
<glyph unicode="&#xc9;" horiz-adv-x="1096" d="M185 0l348 1506h811l-17 -72h-734l-144 -626h614l-18 -71h-612l-154 -666h734l-18 -71h-810zM833 1770l437 206l20 -62l-441 -198z" />
<glyph unicode="&#xca;" horiz-adv-x="1096" d="M185 0l348 1506h811l-17 -72h-734l-144 -626h614l-18 -71h-612l-154 -666h734l-18 -71h-810zM854 1716l336 275h29l209 -275h-74l-156 209l-256 -209h-88z" />
<glyph unicode="&#xcb;" horiz-adv-x="1096" d="M185 0l348 1506h811l-17 -72h-734l-144 -626h614l-18 -71h-612l-154 -666h734l-18 -71h-810zM778 1787l30 142h65l-36 -142h-59zM1163 1787l35 142h62l-35 -142h-62z" />
<glyph unicode="&#xcc;" horiz-adv-x="446" d="M185 0l348 1506h78l-349 -1506h-77zM329 1914l36 58l345 -209l-33 -47z" />
<glyph unicode="&#xcd;" horiz-adv-x="446" d="M185 0l348 1506h78l-349 -1506h-77zM509 1770l439 206l20 -62l-441 -198z" />
<glyph unicode="&#xce;" horiz-adv-x="446" d="M185 0l348 1506h78l-349 -1506h-77zM324 1716l336 275h30l209 -275h-74l-156 209l-256 -209h-89z" />
<glyph unicode="&#xcf;" horiz-adv-x="446" d="M185 0l348 1506h78l-349 -1506h-77zM394 1787l29 142h65l-36 -142h-58zM778 1787l35 142h63l-35 -142h-63z" />
<glyph unicode="&#xd0;" horiz-adv-x="1311" d="M189 0l166 714h-164l16 82h167l164 710h490q195 0 280 -108t85 -305.5t-43 -378.5t-123 -343t-219 -266.5t-309 -104.5h-510zM286 71h432q138 0 254 98t188.5 249.5t111.5 321t39 344t-67.5 262.5t-230.5 88h-416l-145 -638h348l-20 -82h-347z" />
<glyph unicode="&#xd1;" horiz-adv-x="1326" d="M185 0l348 1506h175l322 -1435h52l331 1435h77l-349 -1506h-169l-325 1434h-54l-331 -1434h-77zM751 1839q141 122 198 122t164.5 -67.5t131.5 -67.5q41 0 142 82l35 27l8 -53q-135 -123 -187.5 -123t-161.5 68.5t-133 68.5q-39 0 -156 -90l-39 -27z" />
<glyph unicode="&#xd2;" horiz-adv-x="1367" d="M262 438q0 257 91.5 515t259 415t390 157t334.5 -108t112 -335q0 -288 -92.5 -552.5t-262 -406.5t-398 -142t-331.5 100t-103 357zM342 421q0 -202 84.5 -286t268 -84t314.5 97q174 131 266.5 397t92.5 539q0 191 -91 280t-259.5 89t-295.5 -92q-178 -131 -279 -404 t-101 -536zM876 1914l35 58l345 -209l-33 -47z" />
<glyph unicode="&#xd3;" horiz-adv-x="1367" d="M262 438q0 257 91.5 515t259 415t390 157t334.5 -108t112 -335q0 -288 -92.5 -552.5t-262 -406.5t-398 -142t-331.5 100t-103 357zM342 421q0 -202 84.5 -286t268 -84t314.5 97q174 131 266.5 397t92.5 539q0 191 -91 280t-259.5 89t-295.5 -92q-178 -131 -279 -404 t-101 -536zM948 1770l439 206l19 -62l-440 -198z" />
<glyph unicode="&#xd4;" horiz-adv-x="1367" d="M262 438q0 257 91.5 515t259 415t390 157t334.5 -108t112 -335q0 -288 -92.5 -552.5t-262 -406.5t-398 -142t-331.5 100t-103 357zM342 421q0 -202 84.5 -286t268 -84t314.5 97q174 131 266.5 397t92.5 539q0 191 -91 280t-259.5 89t-295.5 -92q-178 -131 -279 -404 t-101 -536zM800 1727l335 275h31l208 -275h-73l-157 208l-256 -208h-88z" />
<glyph unicode="&#xd5;" horiz-adv-x="1367" d="M262 438q0 257 91.5 515t259 415t390 157t334.5 -108t112 -335q0 -288 -92.5 -552.5t-262 -406.5t-398 -142t-331.5 100t-103 357zM342 421q0 -202 84.5 -286t268 -84t314.5 97q174 131 266.5 397t92.5 539q0 191 -91 280t-259.5 89t-295.5 -92q-178 -131 -279 -404 t-101 -536zM788 1839q141 122 198 122t164.5 -67.5t131.5 -67.5q41 0 142 82l34 27l9 -53q-136 -123 -189 -123t-161 68.5t-132 68.5q-39 0 -158 -90l-37 -27z" />
<glyph unicode="&#xd6;" horiz-adv-x="1367" d="M262 438q0 257 91.5 515t259 415t390 157t334.5 -108t112 -335q0 -288 -92.5 -552.5t-262 -406.5t-398 -142t-331.5 100t-103 357zM342 421q0 -202 84.5 -286t268 -84t314.5 97q174 131 266.5 397t92.5 539q0 191 -91 280t-259.5 89t-295.5 -92q-178 -131 -279 -404 t-101 -536zM868 1791l33 140h73l-32 -140h-74zM1256 1791l28 140h73l-32 -140h-69z" />
<glyph unicode="&#xd7;" d="M297 164l378 376l-378 376l52 52l375 -379l377 379l52 -52l-379 -376l379 -376l-52 -53l-377 379l-375 -379z" />
<glyph unicode="&#xd8;" horiz-adv-x="1367" d="M170 -203l193 285q-101 101 -101 357t91.5 514t259 415t370.5 157t312 -76l172 252l64 -30l-183 -267q101 -111 101 -322q0 -288 -92.5 -552.5t-262 -406.5t-370.5 -142t-307 60l-189 -277zM342 421q0 -181 69 -269l841 1233q-93 69 -248 68.5t-282 -92.5 q-178 -131 -279 -404t-101 -536zM462 107q86 -56 251 -56t296 97q174 131 266.5 397t92.5 539q0 163 -67 252l-421 -622z" />
<glyph unicode="&#xd9;" horiz-adv-x="1274" d="M256 277q0 82 21 168l246 1061h77l-245 -1061q-22 -90 -22 -166q0 -225 340 -225q193 0 298.5 91t148.5 281l250 1080h77l-249 -1083q-51 -223 -175 -332.5t-335 -109.5q-433 0 -432 296zM813 1914l36 58l345 -209l-33 -47z" />
<glyph unicode="&#xda;" horiz-adv-x="1274" d="M256 277q0 82 21 168l246 1061h77l-245 -1061q-22 -90 -22 -166q0 -225 340 -225q193 0 298.5 91t148.5 281l250 1080h77l-249 -1083q-51 -223 -175 -332.5t-335 -109.5q-433 0 -432 296zM847 1770l439 206l19 -62l-441 -198z" />
<glyph unicode="&#xdb;" horiz-adv-x="1274" d="M256 277q0 82 21 168l246 1061h77l-245 -1061q-22 -90 -22 -166q0 -225 340 -225q193 0 298.5 91t148.5 281l250 1080h77l-249 -1083q-51 -223 -175 -332.5t-335 -109.5q-433 0 -432 296zM731 1727l336 275h29l209 -275h-72l-158 208l-256 -208h-88z" />
<glyph unicode="&#xdc;" horiz-adv-x="1274" d="M256 277q0 82 21 168l246 1061h77l-245 -1061q-22 -90 -22 -166q0 -225 340 -225q193 0 298.5 91t148.5 281l250 1080h77l-249 -1083q-51 -223 -175 -332.5t-335 -109.5q-433 0 -432 296zM798 1791l33 140h72l-33 -140h-72zM1184 1791l29 140h73l-32 -140h-70z" />
<glyph unicode="&#xdd;" horiz-adv-x="1042" d="M383 1506h77l221 -777l581 777h86l-647 -859l-151 -647h-76l152 663zM722 1770l439 206l19 -62l-440 -198z" />
<glyph unicode="&#xde;" horiz-adv-x="1194" d="M183 0l353 1506h77l-61 -261h420q331 0 331 -297q0 -71 -19 -158q-49 -228 -181.5 -365t-343.5 -137h-432l-67 -288h-77zM344 357h432q318 0 428 433q21 84 21 150q0 236 -271 236h-416z" />
<glyph unicode="&#xdf;" horiz-adv-x="1122" d="M158 0l268 1151q56 240 155.5 339t284.5 99q304 0 304 -224q0 -129 -57 -208.5t-156 -132t-134 -83t-35 -73.5t23.5 -70.5t128.5 -92.5t146 -114t41 -154q0 -209 -128.5 -332.5t-360.5 -123.5q-84 0 -186 23l-35 6l11 70q136 -31 219 -31q187 0 294.5 104.5t107.5 281.5 q0 77 -35 119.5t-136.5 105t-133.5 104.5t-32 103.5t42 105.5t171 113q168 90 167 268q0 87 -52.5 126.5t-194 39.5t-221.5 -85t-127 -291l-267 -1144h-72z" />
<glyph unicode="&#xe0;" horiz-adv-x="1036" d="M205 254q0 189 59.5 378t187 325.5t290.5 136.5q110 0 309 -31l67 -12l-164 -700q-24 -99 -53 -291l-9 -58l-71 -4q37 224 47 273q-8 -11 -22.5 -31.5t-61.5 -69.5t-93 -88t-109.5 -70t-119.5 -31q-258 0 -257 273zM284 254q0 -101 45 -152t149 -51q116 0 316 220 q45 49 70 86l26 35l140 601q-157 33 -293.5 33t-245 -130.5t-158 -302.5t-49.5 -339zM671 1496l39 55l344 -205l-39 -47z" />
<glyph unicode="&#xe1;" horiz-adv-x="1036" d="M205 254q0 189 59.5 378t187 325.5t290.5 136.5q110 0 309 -31l67 -12l-164 -700q-24 -99 -53 -291l-9 -58l-71 -4q37 224 47 273q-8 -11 -22.5 -31.5t-61.5 -69.5t-93 -88t-109.5 -70t-119.5 -31q-258 0 -257 273zM284 254q0 -101 45 -152t149 -51q116 0 316 220 q45 49 70 86l26 35l140 601q-157 33 -293.5 33t-245 -130.5t-158 -302.5t-49.5 -339zM727 1365l436 205l13 -64l-439 -195z" />
<glyph unicode="&#xe2;" horiz-adv-x="1036" d="M205 254q0 189 59.5 378t187 325.5t290.5 136.5q110 0 309 -31l67 -12l-164 -700q-24 -99 -53 -291l-9 -58l-71 -4q37 224 47 273q-8 -11 -22.5 -31.5t-61.5 -69.5t-93 -88t-109.5 -70t-119.5 -31q-258 0 -257 273zM284 254q0 -101 45 -152t149 -51q116 0 316 220 q45 49 70 86l26 35l140 601q-157 33 -293.5 33t-245 -130.5t-158 -302.5t-49.5 -339zM559 1280l314 290h48l187 -290h-82l-138 216l-236 -216h-93z" />
<glyph unicode="&#xe3;" horiz-adv-x="1036" d="M205 254q0 189 59.5 378t187 325.5t290.5 136.5q110 0 309 -31l67 -12l-164 -700q-24 -99 -53 -291l-9 -58l-71 -4q37 224 47 273q-8 -11 -22.5 -31.5t-61.5 -69.5t-93 -88t-109.5 -70t-119.5 -31q-258 0 -257 273zM284 254q0 -101 45 -152t149 -51q116 0 316 220 q45 49 70 86l26 35l140 601q-157 33 -293.5 33t-245 -130.5t-158 -302.5t-49.5 -339zM591 1434q125 99 189 99q41 0 140.5 -54.5t120.5 -54.5q41 0 122 64l29 24l10 -65q-108 -93 -170 -93q-39 0 -141.5 55.5t-125.5 55.5q-38 0 -137 -74l-33 -23z" />
<glyph unicode="&#xe4;" horiz-adv-x="1036" d="M205 254q0 189 59.5 378t187 325.5t290.5 136.5q110 0 309 -31l67 -12l-164 -700q-24 -99 -53 -291l-9 -58l-71 -4q37 224 47 273q-8 -11 -22.5 -31.5t-61.5 -69.5t-93 -88t-109.5 -70t-119.5 -31q-258 0 -257 273zM284 254q0 -101 45 -152t149 -51q116 0 316 220 q45 49 70 86l26 35l140 601q-157 33 -293.5 33t-245 -130.5t-158 -302.5t-49.5 -339zM607 1361l31 141h74l-33 -141h-72zM993 1361l29 141h72l-31 -141h-70z" />
<glyph unicode="&#xe5;" horiz-adv-x="1036" d="M205 254q0 189 59.5 378t187 325.5t290.5 136.5q110 0 309 -31l67 -12l-164 -700q-24 -99 -53 -291l-9 -58l-71 -4q37 224 47 273q-8 -11 -22.5 -31.5t-61.5 -69.5t-93 -88t-109.5 -70t-119.5 -31q-258 0 -257 273zM284 254q0 -101 45 -152t149 -51q116 0 316 220 q45 49 70 86l26 35l140 601q-157 33 -293.5 33t-245 -130.5t-158 -302.5t-49.5 -339zM727 1381q0 118 73 183.5t164 65.5q140 0 140 -151q0 -100 -69.5 -170t-166.5 -70q-141 0 -141 142zM788 1394q0 -24 22.5 -58.5t75 -34.5t95.5 39q62 53 62 127q0 30 -21.5 63t-74 33 t-99 -37.5t-56.5 -91.5q-4 -16 -4 -40z" />
<glyph unicode="&#xe6;" horiz-adv-x="1660" d="M148 203q0 43 10 94q28 150 127.5 218t279 93.5t340.5 38.5q43 146 43 181.5t-3 58t-16 57.5q-30 69 -151 69q-99 0 -322 -15l-62 -5l12 80q228 21 390 21q99 0 163.5 -53.5t66.5 -150.5q140 205 402 204q295 0 294 -292q0 -109 -29 -223l-20 -76l-709 4 q-33 -144 -33 -240q0 -209 224 -209q154 0 316 16l60 4l-15 -78q-232 -19 -379 -19q-197 -1 -259 124q-316 -125 -523 -124.5t-207 222.5zM234 215q0 -157 138 -157q170 0 486 116q-15 80 -9.5 130.5t6.5 65.5t8 52.5t10 45.5q4 54 22 104q-275 -30 -383 -48.5t-174.5 -71 t-92.5 -155.5q-11 -43 -11 -82zM979 581l632 -5q34 125 34 228q0 213 -235 213q-162 0 -270 -103t-161 -333z" />
<glyph unicode="&#xe7;" horiz-adv-x="866" d="M213 277q0 469 249 695q133 123 318 122q103 0 201 -17l34 -6l-20 -67q-122 21 -215 22q-162 0 -275 -110q-213 -209 -212 -632q0 -117 61 -176t198 -59q80 0 205 31l43 10v-69q-144 -41 -264 -40h-23l-23 -95h11q170 0 170 -112q0 -19 -4 -41q-37 -161 -205 -161l-163 9 l17 66q88 -8 158 -8q96 0 119 94q4 15 4 31q0 58 -78 58h-111l39 165q-234 35 -234 290z" />
<glyph unicode="&#xe8;" horiz-adv-x="971" d="M209 279.5q0 141.5 35 281.5t103 261.5t180.5 196.5t254.5 75q280 0 281 -221q0 -183 -149 -259t-458 -76h-136q-32 -130 -32 -243.5t63.5 -177t155.5 -63.5q160 0 320 47l53 16v-72q-185 -64 -371 -64q-137 0 -218.5 78.5t-81.5 220zM335 607h141q264 0 386.5 56.5 t122.5 209.5t-205 153q-314 0 -445 -419zM511 1496l39 55l345 -205l-39 -47z" />
<glyph unicode="&#xe9;" horiz-adv-x="971" d="M209 279.5q0 141.5 35 281.5t103 261.5t180.5 196.5t254.5 75q280 0 281 -221q0 -183 -149 -259t-458 -76h-136q-32 -130 -32 -243.5t63.5 -177t155.5 -63.5q160 0 320 47l53 16v-72q-185 -64 -371 -64q-137 0 -218.5 78.5t-81.5 220zM335 607h141q264 0 386.5 56.5 t122.5 209.5t-205 153q-314 0 -445 -419zM663 1365l436 205l13 -64l-439 -195z" />
<glyph unicode="&#xea;" horiz-adv-x="971" d="M209 279.5q0 141.5 35 281.5t103 261.5t180.5 196.5t254.5 75q280 0 281 -221q0 -183 -149 -259t-458 -76h-136q-32 -130 -32 -243.5t63.5 -177t155.5 -63.5q160 0 320 47l53 16v-72q-185 -64 -371 -64q-137 0 -218.5 78.5t-81.5 220zM335 607h141q264 0 386.5 56.5 t122.5 209.5t-205 153q-314 0 -445 -419zM523 1280l314 290h47l187 -290h-82l-137 216l-237 -216h-92z" />
<glyph unicode="&#xeb;" horiz-adv-x="971" d="M209 279.5q0 141.5 35 281.5t103 261.5t180.5 196.5t254.5 75q280 0 281 -221q0 -183 -149 -259t-458 -76h-136q-32 -130 -32 -243.5t63.5 -177t155.5 -63.5q160 0 320 47l53 16v-72q-185 -64 -371 -64q-137 0 -218.5 78.5t-81.5 220zM335 607h141q264 0 386.5 56.5 t122.5 209.5t-205 153q-314 0 -445 -419zM604 1361l32 141h74l-33 -141h-73zM991 1361l29 141h72l-32 -141h-69z" />
<glyph unicode="&#xec;" horiz-adv-x="390" d="M158 0l248 1075h76l-250 -1075h-74zM172 1496l39 55l343 -205l-37 -47z" />
<glyph unicode="&#xed;" horiz-adv-x="390" d="M158 0l248 1075h76l-250 -1075h-74zM423 1365l437 205l13 -64l-438 -195z" />
<glyph unicode="&#xee;" horiz-adv-x="390" d="M158 0l248 1075h76l-250 -1075h-74zM203 1280l314 290h47l187 -290h-82l-138 216l-236 -216h-92z" />
<glyph unicode="&#xef;" horiz-adv-x="390" d="M158 0l248 1075h76l-250 -1075h-74zM243 1361l32 141h74l-33 -141h-73zM630 1361l28 141h73l-32 -141h-69z" />
<glyph unicode="&#xf0;" horiz-adv-x="1096" d="M178 290q0 281 162.5 453.5t386.5 172.5q71 0 161.5 -24t143.5 -47l56 -24q10 58 11 115q0 256 -217 421l-275 -165l-35 60l245 148q-105 64 -236 110l41 72q161 -53 275 -133l240 147l35 -63l-215 -129q221 -183 221 -454q0 -84 -21 -176q-99 -419 -253.5 -606 t-372.5 -187q-182 0 -267.5 86.5t-85.5 222.5zM265 299q0 -107 70.5 -172t212.5 -65q351 0 523 675q-80 39 -186.5 68.5t-170.5 29.5q-189 0 -319 -155t-130 -381z" />
<glyph unicode="&#xf1;" horiz-adv-x="1048" d="M158 0l248 1075h76l-56 -242l21 27q48 62 144 142q47 39 110.5 65.5t121.5 26.5q117 0 182.5 -66.5t65.5 -177t-41 -291.5l-131 -559h-74l129 554q41 168 41 270.5t-47 151t-119 48.5t-135.5 -35t-110.5 -75.5t-102 -101.5t-83 -102l-166 -710h-74zM552 1434 q125 99 190 99q41 0 140 -54.5t120 -54.5q41 0 123 64l28 24l10 -65q-108 -93 -170 -93q-39 0 -141.5 55.5t-124.5 55.5q-39 0 -138 -74l-33 -23z" />
<glyph unicode="&#xf2;" horiz-adv-x="1059" d="M213 299q0 335 155 565t383 230q340 0 339 -337q0 -331 -152.5 -553.5t-395.5 -222.5q-329 0 -329 318zM290 299q0 -250 252 -250q209 0 340 205.5t131 502.5q0 123 -65.5 196t-196.5 73q-200 0 -330.5 -214.5t-130.5 -512.5zM570 1496l39 55l343 -205l-38 -47z" />
<glyph unicode="&#xf3;" horiz-adv-x="1059" d="M213 299q0 335 155 565t383 230q340 0 339 -337q0 -331 -152.5 -553.5t-395.5 -222.5q-329 0 -329 318zM290 299q0 -250 252 -250q209 0 340 205.5t131 502.5q0 123 -65.5 196t-196.5 73q-200 0 -330.5 -214.5t-130.5 -512.5zM667 1365l437 205l12 -64l-439 -195z" />
<glyph unicode="&#xf4;" horiz-adv-x="1059" d="M213 299q0 335 155 565t383 230q340 0 339 -337q0 -331 -152.5 -553.5t-395.5 -222.5q-329 0 -329 318zM290 299q0 -250 252 -250q209 0 340 205.5t131 502.5q0 123 -65.5 196t-196.5 73q-200 0 -330.5 -214.5t-130.5 -512.5zM556 1280l314 290h48l188 -290h-82l-138 216 l-237 -216h-93z" />
<glyph unicode="&#xf5;" horiz-adv-x="1059" d="M213 299q0 335 155 565t383 230q340 0 339 -337q0 -331 -152.5 -553.5t-395.5 -222.5q-329 0 -329 318zM290 299q0 -250 252 -250q209 0 340 205.5t131 502.5q0 123 -65.5 196t-196.5 73q-200 0 -330.5 -214.5t-130.5 -512.5zM536 1434q124 99 188 99q41 0 140.5 -54.5 t120.5 -54.5q41 0 123 64l27 24l12 -65q-109 -93 -171 -93q-38 0 -141.5 55.5t-124.5 55.5q-39 0 -138 -74l-32 -23z" />
<glyph unicode="&#xf6;" horiz-adv-x="1059" d="M213 299q0 335 155 565t383 230q340 0 339 -337q0 -331 -152.5 -553.5t-395.5 -222.5q-329 0 -329 318zM290 299q0 -250 252 -250q209 0 340 205.5t131 502.5q0 123 -65.5 196t-196.5 73q-200 0 -330.5 -214.5t-130.5 -512.5zM613 1361l32 141h63l-33 -141h-62zM989 1361 l28 141h62l-32 -141h-58z" />
<glyph unicode="&#xf7;" d="M250 503v73h954v-73h-954zM686 84v172h82v-172h-82zM686 823v172h82v-172h-82z" />
<glyph unicode="&#xf8;" horiz-adv-x="1057" d="M135 -219l171 270q-91 78 -91 252q0 335 155 565.5t383 230.5q107 0 185 -36l148 236l58 -26l-155 -245q103 -84 103 -267q0 -331 -152 -553.5t-396 -222.5q-107 0 -187 34l-164 -262zM293 303q0 -118 58 -180l269 425l277 447q-62 35 -144 35q-200 0 -330 -214 t-130 -513zM398 86q58 -32 146 -32q209 0 340 205t131 502q0 125 -69 198z" />
<glyph unicode="&#xf9;" horiz-adv-x="1048" d="M226 224.5q0 110.5 41 292.5l131 558h73l-129 -554q-41 -168 -41 -269.5t49.5 -151t119.5 -49.5t132.5 33t111.5 80q107 96 162 169l23 32l166 710h74l-249 -1075h-75l55 243q-211 -263 -396 -262q-115 0 -181.5 66.5t-66.5 177zM572 1496l39 55l343 -205l-38 -47z" />
<glyph unicode="&#xfa;" horiz-adv-x="1048" d="M226 224.5q0 110.5 41 292.5l131 558h73l-129 -554q-41 -168 -41 -269.5t49.5 -151t119.5 -49.5t132.5 33t111.5 80q107 96 162 169l23 32l166 710h74l-249 -1075h-75l55 243q-211 -263 -396 -262q-115 0 -181.5 66.5t-66.5 177zM699 1365l436 205l14 -64l-439 -195z" />
<glyph unicode="&#xfb;" horiz-adv-x="1048" d="M226 224.5q0 110.5 41 292.5l131 558h73l-129 -554q-41 -168 -41 -269.5t49.5 -151t119.5 -49.5t132.5 33t111.5 80q107 96 162 169l23 32l166 710h74l-249 -1075h-75l55 243q-211 -263 -396 -262q-115 0 -181.5 66.5t-66.5 177zM505 1280l314 290h47l188 -290h-82 l-137 216l-238 -216h-92z" />
<glyph unicode="&#xfc;" horiz-adv-x="1048" d="M226 224.5q0 110.5 41 292.5l131 558h73l-129 -554q-41 -168 -41 -269.5t49.5 -151t119.5 -49.5t132.5 33t111.5 80q107 96 162 169l23 32l166 710h74l-249 -1075h-75l55 243q-211 -263 -396 -262q-115 0 -181.5 66.5t-66.5 177zM581 1361l32 141h73l-32 -141h-73z M968 1361l27 141h74l-33 -141h-68z" />
<glyph unicode="&#xfd;" horiz-adv-x="962" d="M230 -490l265 490h-125l-54 1075h78l49 -1006h86l534 1006h81l-832 -1565h-82zM634 1365l437 205l13 -64l-439 -195z" />
<glyph unicode="&#xfe;" horiz-adv-x="1020" d="M41 -490l486 2056h73l-151 -624q82 66 186 109t178 43q254 0 254 -320q0 -105 -31 -215q-79 -295 -208 -436.5t-352 -141.5q-115 0 -180.5 11.5t-65.5 13.5l-119 -496h-70zM245 84l243 -26q189 0 294.5 117.5t181.5 386.5q26 88 25.5 162t-11 137.5t-58 109.5t-109.5 46 t-119.5 -18t-102.5 -45q-92 -49 -142 -90l-21 -15z" />
<glyph unicode="&#xff;" horiz-adv-x="962" d="M230 -490l265 490h-125l-54 1075h78l49 -1006h86l534 1006h81l-832 -1565h-82zM533 1361l33 141h72l-31 -141h-74zM921 1361l27 141h74l-33 -141h-68z" />
<glyph unicode="&#x100;" horiz-adv-x="1194" d="M69 0l797 1506h192l81 -1506h-76l-27 464h-642l-246 -464h-79zM433 533h599l-45 901h-78zM716 1818l11 55h584l-14 -55h-581z" />
<glyph unicode="&#x101;" horiz-adv-x="1036" d="M205 254q0 189 59.5 378t187 325.5t290.5 136.5q110 0 309 -31l67 -12l-164 -700q-24 -99 -53 -291l-9 -58l-71 -4q37 224 47 273q-8 -11 -22.5 -31.5t-61.5 -69.5t-93 -88t-109.5 -70t-119.5 -31q-258 0 -257 273zM284 254q0 -101 45 -152t149 -51q116 0 316 220 q45 49 70 86l26 35l140 601q-157 33 -293.5 33t-245 -130.5t-158 -302.5t-49.5 -339zM624 1391l12 56h544l-14 -56h-542z" />
<glyph unicode="&#x102;" horiz-adv-x="1194" d="M69 0l797 1506h192l81 -1506h-76l-27 464h-642l-246 -464h-79zM433 533h599l-45 901h-78zM774 1906q0 34 6 72h65q-6 -32 -6 -73.5t35 -77.5t125.5 -36t162 51.5t92.5 135.5h64q-31 -121 -119.5 -186t-209.5 -65q-215 0 -215 179z" />
<glyph unicode="&#x103;" horiz-adv-x="1036" d="M205 254q0 189 59.5 378t187 325.5t290.5 136.5q110 0 309 -31l67 -12l-164 -700q-24 -99 -53 -291l-9 -58l-71 -4q37 224 47 273q-8 -11 -22.5 -31.5t-61.5 -69.5t-93 -88t-109.5 -70t-119.5 -31q-258 0 -257 273zM284 254q0 -101 45 -152t149 -51q116 0 316 220 q45 49 70 86l26 35l140 601q-157 33 -293.5 33t-245 -130.5t-158 -302.5t-49.5 -339zM665 1461q0 51 8 90h60q-11 -35 -11 -75t27 -78q43 -58 146 -58t168.5 57.5t89.5 153.5h60q-70 -271 -337 -271q-123 0 -177 79q-34 51 -34 102z" />
<glyph unicode="&#x104;" horiz-adv-x="1194" d="M69 0l797 1506h192l81 -1500v-6h-8q-76 -66 -146.5 -154.5t-70.5 -148.5q0 -52 69 -52l121 15l-10 -68q-78 -17 -133 -18q-134 0 -134 116q0 72 77 165.5t156 159.5l-24 449h-642l-246 -464h-79zM433 533h599l-45 901h-78z" />
<glyph unicode="&#x105;" horiz-adv-x="1036" d="M205 254q0 189 59.5 378t187 325.5t290.5 136.5q110 0 309 -31l67 -12l-164 -700q-24 -99 -53 -291l-9 -58h-6q-73 -62 -146 -152t-73 -153q0 -52 68 -52l121 15l-9 -68q-77 -18 -133 -18q-133 0 -133 116q0 74 79.5 169.5t160.5 161.5l2 -2q24 154 45 252 q-8 -11 -22.5 -31.5t-61.5 -69.5t-93 -88t-109 -70t-120 -31q-258 0 -257 273zM284 254q0 -101 45 -152t149 -51q116 0 316 220q45 49 70 86l26 35l140 601q-157 33 -293.5 33t-245 -130.5t-158 -302.5t-49.5 -339z" />
<glyph unicode="&#x106;" horiz-adv-x="1096" d="M260 408q0 308 118 592q133 322 357 453q127 72 274 72q160 0 298 -31l52 -10l-17 -69q-187 37 -343 36.5t-286 -102.5t-210 -261q-162 -329 -161 -680q0 -182 78.5 -268t248.5 -86q164 0 301 30l50 10l-3 -70q-186 -43 -359 -43q-398 0 -398 427zM903 1770l439 206 l19 -62l-440 -198z" />
<glyph unicode="&#x107;" horiz-adv-x="866" d="M213 277q0 469 249 695q133 122 318 122q103 0 201 -17l34 -6l-20 -67q-122 21 -215 22q-162 0 -275 -110q-213 -209 -212 -632q0 -117 61 -176t198 -59q80 0 205 31l43 10v-69q-144 -41 -264 -40q-323 0 -323 296zM660 1365l436 205l14 -64l-439 -195z" />
<glyph unicode="&#x108;" horiz-adv-x="1096" d="M260 408q0 308 118 592q133 322 357 453q127 72 274 72q160 0 298 -31l52 -10l-17 -69q-187 37 -343 36.5t-286 -102.5t-210 -261q-162 -329 -161 -680q0 -182 78.5 -268t248.5 -86q164 0 301 30l50 10l-3 -70q-186 -43 -359 -43q-398 0 -398 427zM782 1727l336 275h31 l208 -275h-73l-157 208l-257 -208h-88z" />
<glyph unicode="&#x109;" horiz-adv-x="866" d="M213 277q0 469 249 695q133 122 318 122q103 0 201 -17l34 -6l-20 -67q-122 21 -215 22q-162 0 -275 -110q-213 -209 -212 -632q0 -117 61 -176t198 -59q80 0 205 31l43 10v-69q-144 -41 -264 -40q-323 0 -323 296zM533 1280l314 290h31l187 -290h-74l-137 216l-237 -216 h-84z" />
<glyph unicode="&#x10a;" horiz-adv-x="1096" d="M260 408q0 308 118 592q133 322 357 453q127 72 274 72q160 0 298 -31l52 -10l-17 -69q-187 37 -343 36.5t-286 -102.5t-210 -261q-162 -329 -161 -680q0 -182 78.5 -268t248.5 -86q164 0 301 30l50 10l-3 -70q-186 -43 -359 -43q-398 0 -398 427zM1032 1736l26 125h60 l-24 -125h-62z" />
<glyph unicode="&#x10b;" horiz-adv-x="866" d="M213 277q0 469 249 695q133 122 318 122q103 0 201 -17l34 -6l-20 -67q-122 21 -215 22q-162 0 -275 -110q-213 -209 -212 -632q0 -117 61 -176t198 -59q80 0 205 31l43 10v-69q-144 -41 -264 -40q-323 0 -323 296zM765 1334l31 124h62l-27 -124h-66z" />
<glyph unicode="&#x10c;" horiz-adv-x="1096" d="M260 408q0 308 118 592q133 322 357 453q127 72 274 72q160 0 298 -31l52 -10l-17 -69q-187 37 -343 36.5t-286 -102.5t-210 -261q-162 -329 -161 -680q0 -182 78.5 -268t248.5 -86q164 0 301 30l50 10l-3 -70q-186 -43 -359 -43q-398 0 -398 427zM831 2002h74l166 -213 l258 213h86l-333 -275h-37z" />
<glyph unicode="&#x10d;" horiz-adv-x="866" d="M213 277q0 469 249 695q133 122 318 122q103 0 201 -17l34 -6l-20 -67q-122 21 -215 22q-162 0 -275 -110q-213 -209 -212 -632q0 -117 61 -176t198 -59q80 0 205 31l43 10v-69q-144 -41 -264 -40q-323 0 -323 296zM600 1570h69l142 -226l247 226h83l-326 -290h-30z" />
<glyph unicode="&#x10e;" horiz-adv-x="1307" d="M185 0l348 1506h491q195 0 280 -108t85 -333q0 -357 -168 -695q-80 -162 -218 -266t-308 -104h-510zM281 71h433q138 0 254 98t187.5 249.5t111.5 321t40 344t-67.5 262.5t-230.5 88h-416zM733 2002h75l166 -213l259 213h85l-333 -275h-37z" />
<glyph unicode="&#x10f;" horiz-adv-x="1061" d="M205 252q0 193 61 382t187 324.5t284 135.5q136 0 265 -25l43 -9l118 510h76l-363 -1570h-74l56 245q-9 -11 -23 -29.5t-59 -63.5t-90.5 -79t-111 -63t-125.5 -29q-244 0 -244 271zM284 252q0 -203 187 -203q52 0 114 34t114 81q105 96 161 171l26 35l144 623 q-150 33 -290 33t-248.5 -130.5t-158 -303.5t-49.5 -340zM1254 1032l109 474h69l-109 -474h-69z" />
<glyph unicode="&#x110;" horiz-adv-x="1311" d="M189 0l166 714h-164l16 82h167l164 710h490q195 0 280 -108t85 -305.5t-43 -378.5t-123 -343t-219 -266.5t-309 -104.5h-510zM286 71h432q138 0 254 98t188.5 249.5t111.5 321t39 344t-67.5 262.5t-230.5 88h-416l-145 -638h348l-20 -82h-347z" />
<glyph unicode="&#x111;" horiz-adv-x="1034" d="M205 252q0 193 61 382t187 324.5t284 135.5q136 0 265 -25l43 -9l63 267h-347l17 77h347l38 166h76l-39 -166h123l-20 -77h-121l-306 -1327h-74l56 245q-9 -11 -23 -29.5t-59 -63.5t-90.5 -79t-111 -63t-125.5 -29q-244 0 -244 271zM284 252q0 -203 187 -203q52 0 114 34 t114 81q105 96 161 171l26 35l144 623q-150 33 -290 33t-248.5 -130.5t-158 -303.5t-49.5 -340z" />
<glyph unicode="&#x112;" horiz-adv-x="1096" d="M185 0l348 1506h811l-17 -72h-734l-144 -626h614l-18 -71h-612l-154 -666h734l-18 -71h-810zM699 1796l11 55h585l-15 -55h-581z" />
<glyph unicode="&#x113;" horiz-adv-x="971" d="M209 279.5q0 141.5 35 281.5t103 261.5t180.5 196.5t254.5 75q280 0 281 -221q0 -183 -149 -259t-458 -76h-136q-32 -130 -32 -243.5t63.5 -177t155.5 -63.5q160 0 320 47l53 16v-72q-185 -64 -371 -64q-137 0 -218.5 78.5t-81.5 220zM335 607h141q264 0 386.5 56.5 t122.5 209.5t-205 153q-314 0 -445 -419zM602 1391l13 56h544l-15 -56h-542z" />
<glyph unicode="&#x114;" horiz-adv-x="1096" d="M185 0l348 1506h811l-17 -72h-734l-144 -626h614l-18 -71h-612l-154 -666h734l-18 -71h-810zM755 1908q0 34 6 72h64q-6 -32 -6 -73.5t35.5 -77.5t126 -36t161.5 51.5t93 135.5h64q-31 -120 -120 -185.5t-209 -65.5q-215 0 -215 179z" />
<glyph unicode="&#x115;" horiz-adv-x="971" d="M209 279.5q0 141.5 35 281.5t103 261.5t180.5 196.5t254.5 75q280 0 281 -221q0 -183 -149 -259t-458 -76h-136q-32 -130 -32 -243.5t63.5 -177t155.5 -63.5q160 0 320 47l53 16v-72q-185 -64 -371 -64q-137 0 -218.5 78.5t-81.5 220zM335 607h141q264 0 386.5 56.5 t122.5 209.5t-205 153q-314 0 -445 -419zM610.5 1461q0.5 51 9.5 90h59q-10 -35 -10 -75t28 -78q41 -58 144 -58t168.5 57.5t89.5 153.5h60q-69 -271 -338 -271q-123 0 -176 79q-35 51 -34.5 102z" />
<glyph unicode="&#x116;" horiz-adv-x="1096" d="M185 0l348 1506h811l-17 -72h-734l-144 -626h614l-18 -71h-612l-154 -666h734l-18 -71h-810zM970 1869l25 124h61l-24 -124h-62z" />
<glyph unicode="&#x117;" horiz-adv-x="971" d="M209 279.5q0 141.5 35 281.5t103 261.5t180.5 196.5t254.5 75q280 0 281 -221q0 -183 -149 -259t-458 -76h-136q-32 -130 -32 -243.5t63.5 -177t155.5 -63.5q160 0 320 47l53 16v-72q-185 -64 -371 -64q-137 0 -218.5 78.5t-81.5 220zM335 607h141q264 0 386.5 56.5 t122.5 209.5t-205 153q-314 0 -445 -419zM774 1334l30 124h62l-27 -124h-65z" />
<glyph unicode="&#x118;" horiz-adv-x="1096" d="M185 0l348 1506h811l-17 -72h-734l-144 -626h614l-18 -71h-612l-154 -666h734l-18 -71h-59q-76 -66 -147 -155t-71 -148q0 -52 70 -52l119 15l-8 -68q-78 -17 -134 -18q-133 0 -133 116q0 66 68 153.5t147 156.5h-662z" />
<glyph unicode="&#x119;" horiz-adv-x="971" d="M209 279.5q0 141.5 35 281.5t103 261.5t180.5 196.5t254.5 75q280 0 281 -221q0 -183 -149 -259t-458 -76h-136q-32 -130 -32 -243.5t63.5 -177t155.5 -63.5q160 0 320 47l53 16v-72l-26 -8q-74 -62 -142.5 -151t-68.5 -146q0 -52 69 -52l121 15l-10 -68 q-77 -18 -133 -18q-134 0 -134 116q0 107 175 271q-123 -24 -241 -23.5t-199.5 79t-81.5 220zM335 607h141q264 0 386.5 56.5t122.5 209.5t-205 153q-314 0 -445 -419z" />
<glyph unicode="&#x11a;" horiz-adv-x="1096" d="M185 0l348 1506h811l-17 -72h-734l-144 -626h614l-18 -71h-612l-154 -666h734l-18 -71h-810zM727 2002h75l166 -213l257 213h86l-332 -275h-37z" />
<glyph unicode="&#x11b;" horiz-adv-x="971" d="M209 279.5q0 141.5 35 281.5t103 261.5t180.5 196.5t254.5 75q280 0 281 -221q0 -183 -149 -259t-458 -76h-136q-32 -130 -32 -243.5t63.5 -177t155.5 -63.5q160 0 320 47l53 16v-72q-185 -64 -371 -64q-137 0 -218.5 78.5t-81.5 220zM335 607h141q264 0 386.5 56.5 t122.5 209.5t-205 153q-314 0 -445 -419zM636 1570h70l141 -226l247 226h84l-326 -290h-31z" />
<glyph unicode="&#x11c;" horiz-adv-x="1235" d="M260 376q0 335 116 626q60 150 145.5 266.5t213 186.5t278.5 70q170 0 359 -41l58 -13l-22 -65q-219 47 -413 47q-131 0 -240.5 -68.5t-184.5 -180.5t-127 -254q-101 -269 -101 -574q0 -325 346 -325q135 0 293 35l53 13l134 574h-284l17 71h361l-163 -703 q-220 -60 -415 -60q-424 0 -424 395zM785 1709l314 291h48l187 -291h-82l-138 218l-236 -218h-93z" />
<glyph unicode="&#x11d;" horiz-adv-x="983" d="M51 -240q0 193 300 354q-29 25 -29 73.5t28 101.5t54 85l29 30q-151 60 -152 250q0 160 115.5 300t311.5 140q105 0 170 -31l320 12l-18 -75h-236q54 -70 54 -156.5t-26 -160.5t-77.5 -143t-144 -113t-208.5 -44l-56 4q-88 -114 -88 -184q0 -43 40 -60.5t196 -35 t226.5 -72t70.5 -168.5q0 -151 -152.5 -265.5t-398.5 -114.5q-150 0 -239.5 77t-89.5 196zM131 -233q0 -91 69 -151.5t198 -60.5q187 0 320.5 89t133.5 223q0 84 -55 119t-195 49t-196 39q-113 -57 -194 -136.5t-81 -170.5zM359 658q0 -206 200 -206q92 0 165.5 37.5 t114.5 95.5q82 111 82 222t-51 165t-171 54q-154 0 -247 -120.5t-93 -247.5zM497 1280l314 290h30l187 -290h-74l-137 216l-236 -216h-84z" />
<glyph unicode="&#x11e;" horiz-adv-x="1235" d="M260 376q0 335 116 626q60 150 145.5 266.5t213 186.5t278.5 70q170 0 359 -41l58 -13l-22 -65q-219 47 -413 47q-131 0 -240.5 -68.5t-184.5 -180.5t-127 -254q-101 -269 -101 -574q0 -325 346 -325q135 0 293 35l53 13l134 574h-284l17 71h361l-163 -703 q-220 -60 -415 -60q-424 0 -424 395zM852 1910q0 39 8 70h71q-6 -25 -6 -53q0 -66 42 -108t132.5 -42t159 56.5t91.5 146.5h70q-33 -125 -128.5 -203t-210.5 -78t-172 60.5t-57 150.5z" />
<glyph unicode="&#x11f;" horiz-adv-x="983" d="M51 -240q0 193 300 354q-29 25 -29 73.5t28 101.5t54 85l29 30q-151 60 -152 250q0 160 115.5 300t311.5 140q105 0 170 -31l320 12l-18 -75h-236q54 -70 54 -156.5t-26 -160.5t-77.5 -143t-144 -113t-208.5 -44l-56 4q-88 -114 -88 -184q0 -43 40 -60.5t196 -35 t226.5 -72t70.5 -168.5q0 -151 -152.5 -265.5t-398.5 -114.5q-150 0 -239.5 77t-89.5 196zM131 -233q0 -91 69 -151.5t198 -60.5q187 0 320.5 89t133.5 223q0 84 -55 119t-195 49t-196 39q-113 -57 -194 -136.5t-81 -170.5zM359 658q0 -206 200 -206q92 0 165.5 37.5 t114.5 95.5q82 111 82 222t-51 165t-171 54q-154 0 -247 -120.5t-93 -247.5zM624 1461q0 51 8 90h60q-11 -35 -11 -75t29 -78q41 -58 144 -58t168.5 57.5t89.5 153.5h60q-70 -271 -337 -271q-123 0 -177 79q-34 51 -34 102z" />
<glyph unicode="&#x120;" horiz-adv-x="1235" d="M260 376q0 335 116 626q60 150 145.5 266.5t213 186.5t278.5 70q170 0 359 -41l58 -13l-22 -65q-219 47 -413 47q-131 0 -240.5 -68.5t-184.5 -180.5t-127 -254q-101 -269 -101 -574q0 -325 346 -325q135 0 293 35l53 13l134 574h-284l17 71h361l-163 -703 q-220 -60 -415 -60q-424 0 -424 395zM1065 1806l29 125h72l-29 -125h-72z" />
<glyph unicode="&#x121;" horiz-adv-x="983" d="M51 -240q0 193 300 354q-29 25 -29 73.5t28 101.5t54 85l29 30q-151 60 -152 250q0 160 115.5 300t311.5 140q105 0 170 -31l320 12l-18 -75h-236q54 -70 54 -156.5t-26 -160.5t-77.5 -143t-144 -113t-208.5 -44l-56 4q-88 -114 -88 -184q0 -43 40 -60.5t196 -35 t226.5 -72t70.5 -168.5q0 -151 -152.5 -265.5t-398.5 -114.5q-150 0 -239.5 77t-89.5 196zM131 -233q0 -91 69 -151.5t198 -60.5q187 0 320.5 89t133.5 223q0 84 -55 119t-195 49t-196 39q-113 -57 -194 -136.5t-81 -170.5zM359 658q0 -206 200 -206q92 0 165.5 37.5 t114.5 95.5q82 111 82 222t-51 165t-171 54q-154 0 -247 -120.5t-93 -247.5zM740 1334l30 124h63l-29 -124h-64z" />
<glyph unicode="&#x122;" horiz-adv-x="1235" d="M260 376q0 335 116 626q60 150 145.5 266.5t213 186.5t278.5 70q170 0 359 -41l58 -13l-22 -65q-219 47 -413 47q-131 0 -240.5 -68.5t-184.5 -180.5t-127 -254q-101 -269 -101 -574q0 -325 346 -325q135 0 293 35l53 13l134 574h-284l17 71h361l-163 -703 q-220 -60 -415 -60q-424 0 -424 395zM417 -570l172 412h74l-189 -412h-57z" />
<glyph unicode="&#x123;" horiz-adv-x="983" d="M51 -240q0 193 300 354q-29 25 -29 73.5t28 101.5t54 85l29 30q-151 60 -152 250q0 160 115.5 300t311.5 140q105 0 170 -31l320 12l-18 -75h-236q54 -70 54 -156.5t-26 -160.5t-77.5 -143t-144 -113t-208.5 -44l-56 4q-88 -114 -88 -184q0 -43 40 -60.5t196 -35 t226.5 -72t70.5 -168.5q0 -151 -152.5 -265.5t-398.5 -114.5q-150 0 -239.5 77t-89.5 196zM131 -233q0 -91 69 -151.5t198 -60.5q187 0 320.5 89t133.5 223q0 84 -55 119t-195 49t-196 39q-113 -57 -194 -136.5t-81 -170.5zM359 658q0 -206 200 -206q92 0 165.5 37.5 t114.5 95.5q82 111 82 222t-51 165t-171 54q-154 0 -247 -120.5t-93 -247.5zM712 1264l189 413h58l-174 -413h-73z" />
<glyph unicode="&#x124;" horiz-adv-x="1346" d="M185 0l348 1506h78l-166 -716h821l166 716h78l-349 -1506h-77l166 718h-822l-166 -718h-77zM761 1727l335 275h31l209 -275h-74l-156 208l-257 -208h-88z" />
<glyph unicode="&#x125;" horiz-adv-x="1051" d="M160 0l363 1570h74l-171 -743q213 267 399 267q117 0 182.5 -66.5t65.5 -180.5t-43 -295l-129 -552h-74l130 554q41 168 41 271q0 198 -185 199q-54 0 -116.5 -32.5t-111.5 -80.5q-99 -92 -164 -174l-23 -31l-164 -706h-74zM649 1662l336 275h30l208 -275h-72l-158 209 l-256 -209h-88z" />
<glyph unicode="&#x126;" horiz-adv-x="1386" d="M207 0l255 1112h-191l15 78h194l72 316h74l-74 -316h831l72 316h74l-74 -316h192l-22 -78h-187l-256 -1112h-72l165 718h-830l-166 -718h-72zM462 796h831l72 316h-832z" />
<glyph unicode="&#x127;" horiz-adv-x="1051" d="M160 0l302 1314h-122l15 69h125l43 187h74l-43 -187h345l-17 -69h-344l-112 -487q213 267 399 267q117 0 182.5 -66.5t65.5 -180.5t-43 -295l-129 -552h-74l130 554q41 168 41 271q0 198 -185 199q-54 0 -116.5 -32.5t-111.5 -80.5q-99 -92 -164 -174l-23 -31l-164 -706 h-74z" />
<glyph unicode="&#x128;" horiz-adv-x="446" d="M185 0l348 1506h78l-349 -1506h-77zM297 1839q142 122 198.5 122t164.5 -67.5t132 -67.5q41 0 141 82l35 27l8 -53q-135 -123 -188 -123t-161 68.5t-132 68.5q-39 0 -157 -90l-39 -27z" />
<glyph unicode="&#x129;" horiz-adv-x="390" d="M158 0l248 1075h76l-250 -1075h-74zM200 1434q124 99 190 99q40 0 139 -54.5t120 -54.5q41 0 123 64l28 24l11 -65q-109 -93 -171 -93q-38 0 -141 55.5t-125 55.5q-39 0 -138 -74l-31 -23z" />
<glyph unicode="&#x12a;" horiz-adv-x="446" d="M185 0l348 1506h78l-349 -1506h-77zM333 1818l11 55h585l-15 -55h-581z" />
<glyph unicode="&#x12b;" horiz-adv-x="390" d="M158 0l248 1075h76l-250 -1075h-74zM230 1391l13 56h545l-16 -56h-542z" />
<glyph unicode="&#x12c;" horiz-adv-x="446" d="M185 0l348 1506h78l-349 -1506h-77zM398 1906q0 34 6 72h64q-6 -32 -6 -73.5t35.5 -77.5t126 -36t161.5 51.5t93 135.5h64q-31 -121 -120 -186t-209 -65q-215 0 -215 179z" />
<glyph unicode="&#x12d;" horiz-adv-x="390" d="M158 0l248 1075h76l-250 -1075h-74zM269 1461q0 51 8 90h61q-10 -35 -10.5 -75t25.5 -78q43 -58 146 -58t168.5 57.5t89.5 153.5h60q-69 -271 -337 -271q-123 0 -177 79q-34 51 -34 102z" />
<glyph unicode="&#x12e;" horiz-adv-x="446" d="M-54 -310q0 74 80.5 169.5t162.5 159.5l344 1487h78l-349 -1506q-77 -60 -153 -150t-76 -153q0 -52 68 -52l121 15l-9 -68q-78 -18 -133 -18q-134 0 -134 116z" />
<glyph unicode="&#x12f;" horiz-adv-x="392" d="M-76 -310q0 74 80 170.5t160 158.5l244 1056h76l-250 -1075q-75 -64 -149.5 -152t-74.5 -151q0 -52 70 -52l120 15l-9 -68q-78 -18 -133 -18q-134 0 -134 116zM476 1372l29 130h78l-31 -130h-76z" />
<glyph unicode="&#x130;" horiz-adv-x="446" d="M185 0l348 1506h78l-349 -1506h-77zM607 1869l25 124h60l-23 -124h-62z" />
<glyph unicode="&#x131;" horiz-adv-x="390" d="M158 0l248 1075h76l-250 -1075h-74z" />
<glyph unicode="&#x134;" horiz-adv-x="543" d="M15 -152l13 70q162 0 215.5 58.5t102.5 273.5l290 1256h78l-295 -1276q-31 -131 -52 -193.5t-65 -112t-108.5 -63t-178.5 -13.5zM417 1727l336 275h29l209 -275h-73l-157 208l-256 -208h-88z" />
<glyph unicode="&#x135;" horiz-adv-x="390" d="M-213 -449q211 105 267 172.5t104 276.5l248 1075h76l-250 -1075q-58 -248 -122.5 -326t-296.5 -187zM205 1280l314 290h29l187 -290h-72l-138 216l-237 -216h-83z" />
<glyph unicode="&#x136;" horiz-adv-x="1092" d="M185 0l348 1506h78l-170 -728h236l624 728h92l-653 -762l305 -744h-81l-289 708h-249l-164 -708h-77zM342 -570l171 412h74l-189 -412h-56z" />
<glyph unicode="&#x137;" horiz-adv-x="926" d="M160 0l363 1570h74l-217 -940h182l466 445h99l-507 -486l242 -589h-84l-234 562h-181l-129 -562h-74zM222 -570l172 412h72l-189 -412h-55z" />
<glyph unicode="&#x139;" horiz-adv-x="948" d="M185 0l348 1506h78l-332 -1435h667l-17 -71h-744zM684 1770l438 206l19 -62l-440 -198z" />
<glyph unicode="&#x13a;" horiz-adv-x="418" d="M172 0l364 1570h75l-363 -1570h-76zM538 1770l438 206l19 -62l-441 -198z" />
<glyph unicode="&#x13b;" horiz-adv-x="948" d="M185 0l348 1506h78l-332 -1435h667l-17 -71h-744zM333 -570l172 412h74l-189 -412h-57z" />
<glyph unicode="&#x13c;" horiz-adv-x="418" d="M-35 -570l173 412h73l-190 -412h-56zM172 0l364 1570h75l-363 -1570h-76z" />
<glyph unicode="&#x13d;" horiz-adv-x="956" d="M185 0l348 1506h78l-332 -1435h667l-17 -71h-744zM961 1032l110 474h68l-109 -474h-69z" />
<glyph unicode="&#x13e;" horiz-adv-x="431" d="M172 0l364 1570h75l-363 -1570h-76zM624 1032l109 474h69l-110 -474h-68z" />
<glyph unicode="&#x141;" horiz-adv-x="950" d="M162 630l201 127l175 749h77l-159 -691l391 245l23 -65l-437 -277l-149 -647h666l-17 -71h-744l153 660l-151 -94q-2 0 -2 4z" />
<glyph unicode="&#x142;" horiz-adv-x="550" d="M174 628l234 146l185 796h76l-172 -743l189 119l28 -62l-238 -149l-170 -735h-76l157 681l-180 -111z" />
<glyph unicode="&#x143;" horiz-adv-x="1326" d="M185 0l348 1506h175l322 -1435h52l331 1435h77l-349 -1506h-169l-325 1434h-54l-331 -1434h-77zM866 1770l439 206l20 -62l-441 -198z" />
<glyph unicode="&#x144;" horiz-adv-x="1048" d="M158 0l248 1075h76l-56 -242l21 27q48 62 144 142q47 39 110.5 65.5t121.5 26.5q117 0 182.5 -66.5t65.5 -177t-41 -291.5l-131 -559h-74l129 554q41 168 41 270.5t-47 151t-119 48.5t-135.5 -35t-110.5 -75.5t-102 -101.5t-83 -102l-166 -710h-74zM652 1365l436 205 l13 -64l-438 -195z" />
<glyph unicode="&#x145;" horiz-adv-x="1326" d="M185 0l348 1506h175l322 -1435h52l331 1435h77l-349 -1506h-169l-325 1434h-54l-331 -1434h-77zM433 -570l171 412h73l-189 -412h-55z" />
<glyph unicode="&#x146;" horiz-adv-x="1048" d="M158 0l248 1075h76l-56 -242q211 262 397 261q117 0 182.5 -66.5t65.5 -177t-41 -291.5l-131 -559h-74l129 554q41 168 41 271q0 198 -184 199q-54 0 -116.5 -32.5t-113.5 -80.5q-105 -96 -160 -169l-23 -32l-166 -710h-74zM312 -570l172 412h72l-188 -412h-56z" />
<glyph unicode="&#x147;" horiz-adv-x="1326" d="M185 0l348 1506h175l322 -1435h52l331 1435h77l-349 -1506h-169l-325 1434h-54l-331 -1434h-77zM821 1991h76l166 -212l257 212h86l-333 -275h-37z" />
<glyph unicode="&#x148;" horiz-adv-x="1048" d="M158 0l248 1075h76l-56 -242q211 262 397 261q117 0 182.5 -66.5t65.5 -177t-41 -291.5l-131 -559h-74l129 554q41 168 41 271q0 198 -184 199q-54 0 -116.5 -32.5t-113.5 -80.5q-105 -96 -160 -169l-23 -32l-166 -710h-74zM615 1570h69l141 -226l248 226h84l-326 -290 h-31z" />
<glyph unicode="&#x14a;" horiz-adv-x="1326" d="M185 0l348 1506h179l320 -1435h52l331 1435h75l-343 -1491q-43 -189 -79 -253.5t-75 -83.5q-86 -46 -249 -46l13 71q154 0 210.5 54t99.5 243h-99l-323 1434h-54l-331 -1434h-75z" />
<glyph unicode="&#x14b;" horiz-adv-x="1042" d="M158 0l250 1075h74l-43 -166q68 67 173.5 126t225 59t177.5 -54.5t58 -192.5q0 -77 -51 -293l-132 -564q-43 -185 -124.5 -277.5t-289.5 -202.5l-14 75q185 101 255.5 186t115.5 272l119 511q48 207 48 296.5t-45.5 128t-140 38.5t-189 -47t-147.5 -94l-57 -49l-193 -827 h-70z" />
<glyph unicode="&#x14c;" horiz-adv-x="1367" d="M262 438q0 257 91.5 515t259 415t390 157t334.5 -108t112 -335q0 -288 -92.5 -552.5t-262 -406.5t-398 -142t-331.5 100t-103 357zM342 421q0 -202 84.5 -286t268 -84t314.5 97q174 131 266.5 397t92.5 539q0 191 -91 280t-259.5 89t-295.5 -92q-178 -131 -279 -404 t-101 -536zM804 1796l11 55h585l-15 -55h-581z" />
<glyph unicode="&#x14d;" horiz-adv-x="1059" d="M213 299q0 335 155 565t383 230q340 0 339 -337q0 -331 -152.5 -553.5t-395.5 -222.5q-329 0 -329 318zM290 299q0 -250 252 -250q209 0 340 205.5t131 502.5q0 123 -65.5 196t-196.5 73q-200 0 -330.5 -214.5t-130.5 -512.5zM556 1391l14 56h544l-15 -56h-543z" />
<glyph unicode="&#x14e;" horiz-adv-x="1367" d="M262 438q0 257 91.5 515t259 415t390 157t334.5 -108t112 -335q0 -288 -92.5 -552.5t-262 -406.5t-398 -142t-331.5 100t-103 357zM342 421q0 -202 84.5 -286t268 -84t314.5 97q174 131 266.5 397t92.5 539q0 191 -91 280t-259.5 89t-295.5 -92q-178 -131 -279 -404 t-101 -536zM852 1908q0 34 6 72h65q-6 -32 -6.5 -73.5t35 -77.5t126 -36t161 51.5t92.5 135.5h64q-30 -120 -119.5 -185.5t-208.5 -65.5q-215 0 -215 179z" />
<glyph unicode="&#x14f;" horiz-adv-x="1059" d="M213 299q0 335 155 565t383 230q340 0 339 -337q0 -331 -152.5 -553.5t-395.5 -222.5q-329 0 -329 318zM290 299q0 -250 252 -250q209 0 340 205.5t131 502.5q0 123 -65.5 196t-196.5 73q-200 0 -330.5 -214.5t-130.5 -512.5zM614.5 1461q0.5 51 9.5 90h60 q-11 -35 -11 -75t28 -78q41 -58 144 -58t168.5 57.5t90.5 153.5h59q-69 -271 -338 -271q-123 0 -176 79q-35 51 -34.5 102z" />
<glyph unicode="&#x150;" horiz-adv-x="1367" d="M262 438q0 257 91.5 515t259 415t390 157t334.5 -108t112 -335q0 -288 -92.5 -552.5t-262 -406.5t-398 -142t-331.5 100t-103 357zM342 421q0 -202 84.5 -286t268 -84t314.5 97q174 131 266.5 397t92.5 539q0 191 -91 280t-259.5 89t-295.5 -92q-178 -131 -279 -404 t-101 -536zM778 1755l437 186l8 -51l-431 -185zM1168 1755l428 184l17 -49l-437 -187z" />
<glyph unicode="&#x151;" horiz-adv-x="1059" d="M213 299q0 335 155 565t383 230q340 0 339 -337q0 -331 -152.5 -553.5t-395.5 -222.5q-329 0 -329 318zM290 299q0 -250 252 -250q209 0 340 205.5t131 502.5q0 123 -65.5 196t-196.5 73q-200 0 -330.5 -214.5t-130.5 -512.5zM529 1331l380 226l27 -55l-384 -224z M903 1331l383 226l25 -55l-384 -224z" />
<glyph unicode="&#x152;" horiz-adv-x="1883" d="M248 368q0 145 53 374q95 394 259 588.5t460 194.5q120 0 314 -19h800l-16 -82h-727l-148 -609h604l-15 -82l-605 4l-154 -655h727l-21 -84h-798q-210 -17 -325 -17q-215 0 -311.5 96.5t-96.5 290.5zM327 370q0 -151 80.5 -229.5t265.5 -78.5q119 0 322 20l319 1346 q-132 15 -312 15q-263 0 -400.5 -168.5t-221.5 -527.5q-53 -226 -53 -377z" />
<glyph unicode="&#x153;" horiz-adv-x="1775" d="M205 236.5q0 133.5 45 325.5q69 290 190.5 411t355.5 121q290 0 310 -257q131 258 433 257.5t302 -294.5q0 -94 -33 -224l-19 -73l-718 4q-37 -146 -37 -241.5t55 -151.5t191 -55.5t298 15.5l63 4l-11 -78q-232 -19 -383 -19q-260 0 -288 230q-62 -121 -163 -175.5 t-267 -54.5t-245 61t-79 194.5zM281 254.5q0 -102.5 61.5 -149.5t178.5 -47t184 23.5t110 60t80 108.5q55 111 95 272.5t40 233t-10 112.5q-39 148 -234 148.5t-294.5 -100.5t-155 -330t-55.5 -331.5zM1088 581l639 -5q33 130 32 232q0 209 -237 209q-330 0 -434 -436z" />
<glyph unicode="&#x154;" horiz-adv-x="1221" d="M185 0l348 1506h478q341 0 341 -302q0 -289 -148 -430q-125 -119 -268 -146l191 -628h-78l-189 620h-454l-144 -620h-77zM421 690h402q203 0 325 135.5t122 358.5q0 138 -65.5 194t-211.5 56h-400zM788 1770l437 206l20 -62l-441 -198z" />
<glyph unicode="&#x155;" horiz-adv-x="653" d="M158 0l250 1075h74l-37 -164q215 136 423 185l-16 -74q-138 -35 -353 -149l-71 -36l-194 -837h-76zM445 1365l437 205l13 -64l-439 -195z" />
<glyph unicode="&#x156;" horiz-adv-x="1221" d="M185 0l348 1506h478q172 0 256.5 -74.5t84.5 -227.5t-41 -260t-107 -170q-125 -119 -268 -146l191 -628h-78l-189 620h-454l-144 -620h-77zM400 -570l172 412h73l-189 -412h-56zM421 690h402q203 0 325 135.5t122 358.5q0 138 -65.5 194t-211.5 56h-400z" />
<glyph unicode="&#x157;" horiz-adv-x="653" d="M-39 -570l172 412h74l-190 -412h-56zM158 0l250 1075h74l-37 -164q215 136 423 185l-16 -74q-138 -35 -353 -149l-71 -36l-194 -837h-76z" />
<glyph unicode="&#x158;" horiz-adv-x="1221" d="M185 0l348 1506h478q341 0 341 -302q0 -289 -148 -430q-125 -119 -268 -146l191 -628h-78l-189 620h-454l-144 -620h-77zM421 690h402q203 0 325 135.5t122 358.5q0 138 -65.5 194t-211.5 56h-400zM714 1991h76l164 -212l259 212h86l-333 -275h-37z" />
<glyph unicode="&#x159;" horiz-adv-x="653" d="M158 0l250 1075h74l-37 -164q215 136 423 185l-16 -74q-138 -35 -353 -149l-71 -36l-194 -837h-76zM437 1570h68l142 -226l248 226h84l-327 -290h-30z" />
<glyph unicode="&#x15a;" horiz-adv-x="1079" d="M129 17l15 71q254 -37 436.5 -37t295.5 122t113 326q0 107 -53.5 153.5t-226.5 95t-256 111t-83 199.5q0 228 145 347.5t392 119.5q142 0 314 -35l54 -11l-13 -64q-219 38 -370 38q-208 0 -325.5 -99.5t-117.5 -295.5q0 -102 66 -147t240 -96.5t245 -114t71 -199.5 q0 -239 -140.5 -379.5t-380.5 -140.5q-182 0 -357 27zM757 1770l439 206l19 -62l-441 -198z" />
<glyph unicode="&#x15b;" horiz-adv-x="917" d="M117 15l14 69q193 -35 333 -35t245.5 75.5t105.5 221.5q0 82 -50.5 112t-201 63t-213 75t-62.5 139q0 152 114.5 255.5t294.5 103.5q119 0 279 -23l54 -6l-19 -67q-191 28 -330 28t-227.5 -82t-88.5 -195q0 -64 45.5 -95.5t197 -65.5t218 -78t66.5 -149 q0 -183 -130 -281.5t-325 -98.5q-123 0 -271 25zM617 1365l437 205l13 -64l-439 -195z" />
<glyph unicode="&#x15c;" horiz-adv-x="1079" d="M129 17l15 71q254 -37 436.5 -37t295.5 122t113 326q0 107 -53.5 153.5t-226.5 95t-256 111t-83 199.5q0 228 145 347.5t392 119.5q142 0 314 -35l54 -11l-13 -64q-219 38 -370 38q-208 0 -325.5 -99.5t-117.5 -295.5q0 -102 66 -147t240 -96.5t245 -114t71 -199.5 q0 -239 -140.5 -379.5t-380.5 -140.5q-182 0 -357 27zM652 1727l335 275h30l208 -275h-72l-158 208l-255 -208h-88z" />
<glyph unicode="&#x15d;" horiz-adv-x="917" d="M117 15l14 69q193 -35 333 -35t245.5 75.5t105.5 221.5q0 82 -50.5 112t-201 63t-213 75t-62.5 139q0 152 114.5 255.5t294.5 103.5q119 0 279 -23l54 -6l-19 -67q-191 28 -330 28t-227.5 -82t-88.5 -195q0 -64 45.5 -95.5t197 -65.5t218 -78t66.5 -149 q0 -183 -130 -281.5t-325 -98.5q-123 0 -271 25zM507 1280l314 290h31l186 -290h-72l-139 216l-236 -216h-84z" />
<glyph unicode="&#x15e;" horiz-adv-x="1079" d="M129 17l15 71q254 -37 436.5 -37t295.5 122t113 326q0 107 -53.5 153.5t-226.5 95t-256 111t-83 199.5q0 228 145 347.5t392 119.5q142 0 314 -35l54 -11l-13 -64q-219 39 -370 38q-208 0 -325.5 -99.5t-117.5 -295.5q0 -102 66 -147t240 -96.5t245 -114t71 -199.5 q0 -234 -136.5 -374t-366.5 -146l-24 -95h10q170 0 170 -112q0 -19 -4 -41q-36 -161 -203 -161l-164 9l17 66q88 -8 157 -8q97 0 120 94q4 15 5 31q0 58 -80 58h-110l37 159q-136 4 -316 27z" />
<glyph unicode="&#x15f;" horiz-adv-x="915" d="M114 15l15 69q193 -35 333 -35t245.5 75.5t105.5 221.5q0 82 -50.5 112t-201 63t-213 75t-62.5 139q0 152 113.5 255.5t295.5 103.5q119 0 279 -23l54 -6l-19 -67q-191 28 -330 28t-227.5 -82t-88.5 -195q0 -64 45.5 -95.5t197 -65.5t218 -78t66.5 -149 q0 -176 -120.5 -273.5t-307.5 -104.5l-23 -97h10q171 0 171 -112q0 -19 -5 -41q-36 -161 -204 -161l-163 9l17 66q88 -8 156 -8q97 0 121 94q4 15 4 31q0 58 -80 58h-109l37 161q-132 4 -240 25z" />
<glyph unicode="&#x160;" horiz-adv-x="1079" d="M129 17l15 71q254 -37 436.5 -37t295.5 122t113 326q0 107 -53.5 153.5t-226.5 95t-256 111t-83 199.5q0 228 145 347.5t392 119.5q142 0 314 -35l54 -11l-13 -64q-219 38 -370 38q-208 0 -325.5 -99.5t-117.5 -295.5q0 -102 66 -147t240 -96.5t245 -114t71 -199.5 q0 -239 -140.5 -379.5t-380.5 -140.5q-182 0 -357 27zM727 2002h75l166 -213l257 213h86l-332 -275h-37z" />
<glyph unicode="&#x161;" horiz-adv-x="917" d="M117 15l14 69q193 -35 333 -35t245.5 75.5t105.5 221.5q0 82 -50.5 112t-201 63t-213 75t-62.5 139q0 152 114.5 255.5t294.5 103.5q119 0 279 -23l54 -6l-19 -67q-191 28 -330 28t-227.5 -82t-88.5 -195q0 -64 45.5 -95.5t197 -65.5t218 -78t66.5 -149 q0 -183 -130 -281.5t-325 -98.5q-123 0 -271 25zM568 1570h68l142 -226l248 226h84l-328 -290h-29z" />
<glyph unicode="&#x162;" horiz-adv-x="1024" d="M322 -419l18 66q88 -8 157 -8q96 0 120 94q5 15 5 31q0 58 -80 58h-109l43 178h-5l331 1434h-449l17 72h976l-17 -72h-449l-332 -1434h-6l-29 -114h12q170 0 170 -112q0 -19 -5 -41q-37 -161 -204 -161z" />
<glyph unicode="&#x163;" horiz-adv-x="667" d="M245 -419l17 66q89 -8 157 -8q97 0 121 94q4 15 4 31q0 58 -80 58h-109l39 168q-132 28 -132 176q0 80 37 226l144 614h-157l17 69h159l84 349h76l-86 -349h350l-18 -69h-349l-145 -614q-33 -138 -32 -216q0 -127 138 -127l180 15l-4 -66q-109 -17 -188 -17h-8l-23 -95 h10q170 0 170 -112q0 -19 -4 -41q-37 -161 -205 -161z" />
<glyph unicode="&#x164;" horiz-adv-x="1024" d="M353 1434l17 72h976l-17 -72h-449l-332 -1434h-77l331 1434h-449zM654 1991h75l166 -212l258 212h86l-334 -275h-37z" />
<glyph unicode="&#x165;" horiz-adv-x="778" d="M262 166q0 80 37 226l144 614h-157l17 69h159l84 349h76l-86 -349h350l-18 -69h-349l-145 -614q-32 -138 -32 -216q0 -127 138 -127l180 15l-4 -66q-109 -17 -188 -17q-207 0 -206 185zM954 1032l111 474h68l-109 -474h-70z" />
<glyph unicode="&#x166;" horiz-adv-x="1036" d="M269 704l19 76h368l150 654h-449l17 72h976l-16 -72h-450l-151 -654h373l-24 -76h-368l-162 -704h-76l160 704h-367z" />
<glyph unicode="&#x167;" horiz-adv-x="679" d="M238 626l18 69h120l73 311h-156l17 69h158l84 349h76l-86 -349h350l-16 -69h-351l-73 -311h348l-20 -69h-345l-55 -234q-31 -138 -31 -216q0 -127 137 -127l181 15l-4 -66q-110 -17 -187 -17q-207 0 -207 185q0 80 37 226l53 234h-121z" />
<glyph unicode="&#x168;" horiz-adv-x="1274" d="M256 277q0 82 21 168l246 1061h77l-245 -1061q-22 -90 -22 -166q0 -225 340 -225q193 0 298.5 91t148.5 281l250 1080h77l-249 -1083q-51 -223 -175 -332.5t-335 -109.5q-433 0 -432 296zM716 1839q142 122 199 122t164 -67.5t132 -67.5q41 0 141 82l35 27l8 -53 q-135 -123 -187.5 -123t-161 68.5t-132.5 68.5q-39 0 -157 -90l-39 -27z" />
<glyph unicode="&#x169;" horiz-adv-x="1048" d="M226 224.5q0 110.5 41 292.5l131 558h73l-129 -554q-41 -168 -41 -269.5t49.5 -151t119.5 -49.5t132.5 33t111.5 80q107 96 162 169l23 32l166 710h74l-249 -1075h-75l55 243q-211 -263 -396 -262q-115 0 -181.5 66.5t-66.5 177zM540 1434q125 99 189 99q41 0 140 -54.5 t120 -54.5q41 0 123 64l27 24l12 -65q-108 -93 -170 -93q-39 0 -142.5 55.5t-124.5 55.5q-39 0 -138 -74l-32 -23z" />
<glyph unicode="&#x16a;" horiz-adv-x="1274" d="M256 277q0 82 21 168l246 1061h77l-245 -1061q-22 -90 -22 -166q0 -225 340 -225q193 0 298.5 91t148.5 281l250 1080h77l-249 -1083q-51 -223 -175 -332.5t-335 -109.5q-433 0 -432 296zM751 1796l10 55h585l-15 -55h-580z" />
<glyph unicode="&#x16b;" horiz-adv-x="1048" d="M226 224.5q0 110.5 41 292.5l131 558h73l-129 -554q-41 -168 -41 -269.5t49.5 -151t119.5 -49.5t132.5 33t111.5 80q107 96 162 169l23 32l166 710h74l-249 -1075h-75l55 243q-211 -263 -396 -262q-115 0 -181.5 66.5t-66.5 177zM546 1391l13 56h545l-16 -56h-542z" />
<glyph unicode="&#x16c;" horiz-adv-x="1274" d="M256 277q0 82 21 168l246 1061h77l-245 -1061q-22 -90 -22 -166q0 -225 340 -225q193 0 298.5 91t148.5 281l250 1080h77l-249 -1083q-51 -223 -175 -332.5t-335 -109.5q-433 0 -432 296zM798 1908q0 34 6 72h64q-6 -32 -6 -73.5t35.5 -77.5t126 -36t161.5 51.5t93 135.5 h64q-31 -120 -120 -185.5t-209 -65.5q-215 0 -215 179z" />
<glyph unicode="&#x16d;" horiz-adv-x="1048" d="M226 224.5q0 110.5 41 292.5l131 558h73l-129 -554q-41 -168 -41 -269.5t49.5 -151t119.5 -49.5t132.5 33t111.5 80q107 96 162 169l23 32l166 710h74l-249 -1075h-75l55 243q-211 -263 -396 -262q-115 0 -181.5 66.5t-66.5 177zM587 1461q0 51 8 90h61 q-10 -35 -10.5 -75t25.5 -78q43 -58 146.5 -58t168.5 57.5t89 153.5h60q-69 -271 -337 -271q-123 0 -176 79q-35 51 -35 102z" />
<glyph unicode="&#x16e;" horiz-adv-x="1274" d="M256 277q0 82 21 168l246 1061h77l-245 -1061q-22 -90 -22 -166q0 -225 340 -225q193 0 298.5 91t148.5 281l250 1080h77l-249 -1083q-51 -223 -175 -332.5t-335 -109.5q-433 0 -432 296zM868.5 1748.5q-0.5 36.5 9.5 69.5q51 191 232 191q86 0 125 -48q24 -30 23.5 -69 t-8.5 -74q-48 -190 -233 -190q-88 0 -127 51q-21 33 -21.5 69.5zM929 1781q0 -91 103 -91q131 0 162 128q4 21 4 37q0 91 -104 91q-129 0 -161 -128q-4 -19 -4 -37z" />
<glyph unicode="&#x16f;" horiz-adv-x="1048" d="M226 224.5q0 110.5 41 292.5l131 558h73l-129 -554q-41 -168 -41 -269.5t49.5 -151t119.5 -49.5t132.5 33t111.5 80q107 96 162 169l23 32l166 710h74l-249 -1075h-75l55 243q-211 -263 -396 -262q-115 0 -181.5 66.5t-66.5 177zM632 1338q0 118 73 183.5t163 65.5 q140 0 141 -151q0 -100 -69.5 -170t-165.5 -70q-142 0 -142 142zM692.5 1350.5q-0.5 -23.5 22 -58t75.5 -34.5t96 39q62 53 62 127q0 30 -21.5 63t-74 33t-98.5 -37.5t-57 -91.5q-4 -17 -4.5 -40.5z" />
<glyph unicode="&#x170;" horiz-adv-x="1274" d="M256 277q0 82 21 168l246 1061h77l-245 -1061q-22 -90 -22 -166q0 -225 340 -225q193 0 298.5 91t148.5 281l250 1080h77l-249 -1083q-51 -223 -175 -332.5t-335 -109.5q-433 0 -432 296zM699 1697l436 187l9 -52l-432 -185zM1088 1697l428 185l17 -50l-437 -187z" />
<glyph unicode="&#x171;" horiz-adv-x="1048" d="M226 224.5q0 110.5 41 292.5l131 558h73l-129 -554q-41 -168 -41 -269.5t49.5 -151t119.5 -49.5t132.5 33t111.5 80q107 96 162 169l23 32l166 710h74l-249 -1075h-75l55 243q-211 -263 -396 -262q-115 0 -181.5 66.5t-66.5 177zM572 1331l380 226l27 -55l-384 -224z M946 1331l383 226l25 -55l-384 -224z" />
<glyph unicode="&#x172;" horiz-adv-x="1274" d="M256 277q0 82 21 168l246 1061h77l-245 -1061q-22 -90 -22 -166q0 -225 340 -225q193 0 298.5 91t148.5 281l250 1080h77l-249 -1083q-45 -193 -142 -300.5t-268 -132.5q-76 -67 -141.5 -151t-65.5 -142q0 -52 68 -52l121 15l-9 -68q-77 -17 -133 -18q-133 0 -133 116.5 t193 290.5h-19q-193 0 -303 74t-110 222z" />
<glyph unicode="&#x173;" horiz-adv-x="1048" d="M226 224.5q0 110.5 41 292.5l131 558h73l-129 -554q-41 -168 -41 -269.5t49.5 -151t119.5 -49.5t132.5 33t111.5 80q107 96 162 169l23 32l166 710h74l-249 -1075q-75 -60 -150 -150t-75 -153q0 -52 68 -52l121 15l-9 -68q-77 -17 -133 -18q-133 0 -133 116 q0 74 80.5 169.5t159.5 159.5l51 224q-211 -263 -396 -262q-115 0 -181.5 66.5t-66.5 177z" />
<glyph unicode="&#x174;" horiz-adv-x="1730" d="M368 0l51 1506h78l-54 -1435h76l640 1413h82l-20 -1413h72l619 1435h77l-649 -1506h-191l21 1336l-606 -1336h-196zM950 1716l336 275h30l209 -275h-74l-156 209l-257 -209h-88z" />
<glyph unicode="&#x175;" horiz-adv-x="1526" d="M322 1075h76l13 -1006h34l507 985h97l43 -985h37l488 1006h80l-521 -1075h-159l-36 961l-489 -961h-154zM755 1280l314 290h30l187 -290h-73l-138 216l-236 -216h-84z" />
<glyph unicode="&#x176;" horiz-adv-x="1042" d="M383 1506h77l221 -777l581 777h86l-647 -859l-151 -647h-76l152 663zM617 1716l335 275h31l209 -275h-74l-157 209l-255 -209h-89z" />
<glyph unicode="&#x177;" horiz-adv-x="962" d="M230 -490l265 490h-125l-54 1075h78l49 -1006h86l534 1006h81l-832 -1565h-82zM511 1280l314 290h31l187 -290h-73l-137 216l-238 -216h-84z" />
<glyph unicode="&#x178;" horiz-adv-x="1042" d="M383 1506h77l221 -777l581 777h86l-647 -859l-151 -647h-76l152 663zM675 1785l31 142h64l-37 -142h-58zM1060 1785l34 142h63l-35 -142h-62z" />
<glyph unicode="&#x179;" horiz-adv-x="1069" d="M84 0l37 160l1100 1212l16 62h-816l18 72h892l-38 -168l-1102 -1213l-13 -54h815l-17 -71h-892zM733 1770l439 206l20 -62l-441 -198z" />
<glyph unicode="&#x17a;" horiz-adv-x="903" d="M88 0l6 69l860 937h-636l17 69h730l-11 -69l-861 -937h640l-16 -69h-729zM574 1365l437 205l13 -64l-439 -195z" />
<glyph unicode="&#x17b;" horiz-adv-x="1069" d="M84 0l37 160l1100 1212l16 62h-816l18 72h892l-38 -168l-1102 -1213l-13 -54h815l-17 -71h-892zM884 1869l25 124h61l-24 -124h-62z" />
<glyph unicode="&#x17c;" horiz-adv-x="903" d="M88 0l6 69l860 937h-636l17 69h730l-11 -69l-861 -937h640l-16 -69h-729zM701 1334l30 124h63l-29 -124h-64z" />
<glyph unicode="&#x17d;" horiz-adv-x="1069" d="M84 0l37 160l1100 1212l16 62h-816l18 72h892l-38 -168l-1102 -1213l-13 -54h815l-17 -71h-892zM684 1989h75l166 -212l257 212h86l-332 -275h-37z" />
<glyph unicode="&#x17e;" horiz-adv-x="903" d="M88 0l6 69l860 937h-636l17 69h730l-11 -69l-861 -937h640l-16 -69h-729zM519 1570h68l142 -226l247 226h84l-327 -290h-29z" />
<glyph unicode="&#x192;" d="M69 -511l19 74q65 -6 121 -6q92 0 151 70t100 238l213 886h-243l15 76h245l37 154q62 260 147 362t225 102l224 -15l-20 -76q-162 11 -221 11q-112 0 -170 -92.5t-118 -332.5l-29 -113h372l-19 -76h-369l-216 -901q-47 -198 -132 -285.5t-212 -87.5z" />
<glyph unicode="&#x1fa;" horiz-adv-x="1194" d="M69 0l774 1461q-51 32 -51 98q0 29 10 64q52 191 232 192q86 0 125 -48q24 -30 23.5 -68.5t-8.5 -75.5q-31 -114 -114 -160l79 -1463h-76l-27 464h-642l-246 -464h-79zM433 533h599l-45 901h-78zM854 1582q0 -57 49 -76h114q78 26 101 117q4 22 4 39q0 90 -102 90 q-130 0 -162 -129q-4 -21 -4 -41zM868 1968l437 203l13 -64l-438 -193z" />
<glyph unicode="&#x1fb;" horiz-adv-x="1036" d="M205 254q0 189 59.5 378t187 325.5t290.5 136.5q110 0 309 -31l67 -12l-164 -700q-24 -99 -53 -291l-9 -58l-71 -4q37 224 47 273q-8 -11 -22.5 -31.5t-61.5 -69.5t-93 -88t-109.5 -70t-119.5 -31q-258 0 -257 273zM284 254q0 -101 45 -152t149 -51q116 0 316 220 q45 49 70 86l26 35l140 601q-157 33 -293.5 33t-245 -130.5t-158 -302.5t-49.5 -339zM643 1338q0 118 73.5 183.5t163.5 65.5q140 0 140 -151q0 -100 -69 -170t-166 -70q-141 0 -142 142zM701 1731l436 204l16 -74l-439 -195zM704 1350.5q0 -23.5 22.5 -58t75 -34.5t97.5 39 q60 53 60 127q0 30 -21.5 63t-74 33t-99 -37.5t-56.5 -91.5q-4 -17 -4 -40.5z" />
<glyph unicode="&#x1fc;" horiz-adv-x="1713" d="M69 0l795 1506h1100l-13 -72l-738 4l-153 -630h617l-13 -71h-617l-157 -666h733l-12 -71h-811l105 462h-515l-246 -462h-75zM423 531h498l218 903h-240zM1235 1770l438 206l20 -62l-441 -198z" />
<glyph unicode="&#x1fd;" horiz-adv-x="1660" d="M148 203q0 43 10 94q28 150 127.5 218t279 93.5t340.5 38.5q43 146 43 181.5t-3 58t-16 57.5q-30 69 -151 69q-99 0 -322 -15l-62 -5l12 80q228 21 390 21q99 0 163.5 -53.5t66.5 -150.5q140 205 402 204q295 0 294 -292q0 -109 -29 -223l-20 -76l-709 4 q-33 -144 -33 -240q0 -209 224 -209q154 0 316 16l60 4l-15 -78q-232 -19 -379 -19q-197 -1 -259 124q-316 -125 -523 -124.5t-207 222.5zM234 215q0 -157 138 -157q170 0 486 116q-15 80 -9.5 130.5t6.5 65.5t8 52.5t10 45.5q4 54 22 104q-275 -30 -383 -48.5t-174.5 -71 t-92.5 -155.5q-11 -43 -11 -82zM979 581l632 -5q34 125 34 228q0 213 -235 213q-162 0 -270 -103t-161 -333zM979 1365l436 205l13 -64l-439 -195z" />
<glyph unicode="&#x1fe;" horiz-adv-x="1371" d="M172 -203l193 285q-100 101 -100 357t91 514t258.5 415t371.5 157t311 -76l172 252l64 -30l-183 -267q101 -111 101 -322q0 -288 -92.5 -552.5t-262 -406.5t-370.5 -142t-307 60l-189 -277zM344 421q0 -181 69 -269l841 1233q-93 69 -247.5 68.5t-282.5 -92.5 q-178 -131 -279 -404t-101 -536zM464 107q86 -56 251 -56t296 97q174 131 266.5 397t92.5 539q0 163 -67 252l-421 -622zM931 1770l439 206l21 -73l-441 -198z" />
<glyph unicode="&#x1ff;" horiz-adv-x="1059" d="M146 -219l166 262q-99 78 -99 256q0 335 155 565t383 230q114 0 193 -43l152 248l59 -26l-162 -256q97 -84 97 -260q0 -331 -152.5 -553.5t-395.5 -222.5q-107 0 -179 32l-158 -256zM290 299q0 -127 65 -188l548 876q-66 39 -152 39q-200 0 -330.5 -214.5t-130.5 -512.5z M404 78q54 -29 138 -29q209 0 340 205.5t131 502.5q0 119 -63 191l-271 -427zM645 1365l437 205l12 -64l-438 -195z" />
<glyph unicode="&#x218;" horiz-adv-x="1079" d="M129 17l15 71q254 -37 436.5 -37t295.5 122t113 326q0 107 -53.5 153.5t-226.5 95t-256 111t-83 199.5q0 228 145 347.5t392 119.5q142 0 314 -35l54 -11l-13 -64q-219 38 -370 38q-208 0 -325.5 -99.5t-117.5 -295.5q0 -102 66 -147t240 -96.5t245 -114t71 -199.5 q0 -239 -140.5 -379.5t-380.5 -140.5q-182 0 -357 27zM327 -570l172 412h73l-189 -412h-56z" />
<glyph unicode="&#x219;" horiz-adv-x="915" d="M114 15l15 69q193 -35 333 -35t245.5 75.5t105.5 221.5q0 82 -50.5 112t-201 63t-213 75t-62.5 139q0 152 113.5 255.5t295.5 103.5q119 0 279 -23l54 -6l-19 -67q-191 28 -330 28t-227.5 -82t-88.5 -195q0 -64 45.5 -95.5t197 -65.5t218 -78t66.5 -149 q0 -183 -130 -281.5t-325 -98.5q-123 0 -271 25zM222 -570l172 412h72l-189 -412h-55z" />
<glyph unicode="&#x21a;" horiz-adv-x="1024" d="M273 -570l172 412h74l-190 -412h-56zM353 1434l17 72h976l-17 -72h-449l-332 -1434h-77l331 1434h-449z" />
<glyph unicode="&#x21b;" horiz-adv-x="667" d="M172 -570l172 412h73l-189 -412h-56zM262 166q0 80 37 226l144 614h-157l17 69h159l84 349h76l-86 -349h350l-18 -69h-349l-145 -614q-32 -138 -32 -216q0 -127 138 -127l180 15l-4 -66q-109 -17 -188 -17q-207 0 -206 185z" />
<glyph unicode="&#x2c6;" horiz-adv-x="1699" d="M870 1280l314 290h31l187 -290h-73l-137 216l-238 -216h-84z" />
<glyph unicode="&#x2c7;" horiz-adv-x="1699" d="M933 1570h69l142 -226l247 226h84l-326 -290h-31z" />
<glyph unicode="&#x2d8;" horiz-adv-x="911" d="M540 1461q0 51 8 90h61q-11 -35 -11.5 -75t26.5 -78q43 -58 146 -58t168.5 57.5t89.5 153.5h60q-70 -271 -337 -271q-123 0 -177 79q-34 51 -34 102z" />
<glyph unicode="&#x2d9;" horiz-adv-x="437" d="M499 1334l30 124h62l-27 -124h-65z" />
<glyph unicode="&#x2da;" horiz-adv-x="1699" d="M684 1338q0 118 73.5 183.5t163.5 65.5q139 0 139 -151q0 -100 -69 -170t-166 -70q-141 0 -141 142zM744 1350.5q0 -23.5 23 -58t75.5 -34.5t95.5 39q62 53 62 127q0 30 -21.5 63t-74 33t-99 -37.5t-56.5 -91.5q-5 -17 -5 -40.5z" />
<glyph unicode="&#x2db;" horiz-adv-x="885" d="M269 -310q0 74 79.5 169.5t160.5 161.5l72 -15q-76 -62 -151 -154t-75 -155q0 -52 68 -52l121 15l-8 -68q-78 -18 -134 -18q-133 0 -133 116z" />
<glyph unicode="&#x2dc;" horiz-adv-x="889" d="M503 1434q125 99 189 99q41 0 140 -54.5t120 -54.5q41 0 123 64l29 24l10 -65q-108 -93 -170 -93q-39 0 -142 55.5t-127 55.5q-37 0 -135 -74l-33 -23z" />
<glyph unicode="&#x2dd;" horiz-adv-x="1399" d="M617 1331l381 226l26 -55l-384 -224zM991 1331l383 226l26 -55l-385 -224z" />
<glyph unicode="&#x3c0;" d="M191 979v68q121 28 295 28h482q158 0 273 26l39 9v-69q-66 -29 -239 -32v-678q0 -164 43 -213t170 -49v-69q-166 0 -227 67.5t-61 263.5v675h-439l-63 -1006h-77l65 1004q-166 0 -237 -19z" />
<glyph unicode="&#x1e80;" horiz-adv-x="1730" d="M368 0l51 1506h78l-54 -1435h76l640 1413h82l-20 -1413h72l619 1435h77l-649 -1506h-191l21 1336l-606 -1336h-196zM1043 1914l36 58l345 -209l-33 -47z" />
<glyph unicode="&#x1e81;" horiz-adv-x="1526" d="M322 1075h76l13 -1006h34l507 985h97l43 -985h37l488 1006h80l-521 -1075h-159l-36 961l-489 -961h-154zM765 1496l39 55l345 -205l-39 -47z" />
<glyph unicode="&#x1e82;" horiz-adv-x="1730" d="M368 0l51 1506h78l-54 -1435h76l640 1413h82l-20 -1413h72l619 1435h77l-649 -1506h-191l21 1336l-606 -1336h-196zM1073 1770l439 206l19 -62l-441 -198z" />
<glyph unicode="&#x1e83;" horiz-adv-x="1526" d="M322 1075h76l13 -1006h34l507 985h97l43 -985h37l488 1006h80l-521 -1075h-159l-36 961l-489 -961h-154zM870 1365l437 205l13 -64l-438 -195z" />
<glyph unicode="&#x1e84;" horiz-adv-x="1730" d="M368 0l51 1506h78l-54 -1435h76l640 1413h82l-20 -1413h72l619 1435h77l-649 -1506h-191l21 1336l-606 -1336h-196zM1032 1787l31 142h64l-37 -142h-58zM1418 1787l33 142h63l-35 -142h-61z" />
<glyph unicode="&#x1e85;" horiz-adv-x="1526" d="M322 1075h76l13 -1006h34l507 985h97l43 -985h37l488 1006h80l-521 -1075h-159l-36 961l-489 -961h-154zM825 1361l33 141h63l-33 -141h-63zM1202 1361l28 141h63l-33 -141h-58z" />
<glyph unicode="&#x1eab;" horiz-adv-x="1036" d="M205 254q0 189 59.5 378t187 325.5t290.5 136.5q110 0 309 -31l67 -12l-164 -700q-24 -99 -53 -291l-9 -58l-71 -4q37 224 47 273q-8 -11 -22.5 -31.5t-61.5 -69.5t-93 -88t-109.5 -70t-119.5 -31q-258 0 -257 273zM284 254q0 -101 45 -152t149 -51q116 0 316 220 q45 49 70 86l26 35l140 601q-157 33 -293.5 33t-245 -130.5t-158 -302.5t-49.5 -339zM566 1215l314 291h29l187 -291h-72l-138 217l-237 -217h-83zM630 1650q125 98 189 98q41 0 140 -54.5t120 -54.5q41 0 123 64l28 24l11 -65q-108 -92 -170 -92q-39 0 -142.5 54.5 t-124.5 54.5q-39 0 -137 -73l-33 -24z" />
<glyph unicode="&#x1eb0;" horiz-adv-x="1194" d="M69 0l797 1506h192l81 -1506h-76l-27 464h-642l-246 -464h-79zM433 533h599l-45 901h-78zM776 1822q0 34 6 72h65q-6 -32 -6 -73.5t35 -77.5t125.5 -36t162 51.5t92.5 135.5h64q-31 -121 -119.5 -186t-209.5 -65q-215 0 -215 179zM909 2206l39 54l345 -204l-39 -47z" />
<glyph unicode="&#x1ec5;" horiz-adv-x="971" d="M209 279.5q0 141.5 35 281.5t103 261.5t180.5 196.5t254.5 75q280 0 281 -221q0 -183 -149 -259t-458 -76h-136q-32 -130 -32 -243.5t63.5 -177t155.5 -63.5q160 0 320 47l53 16v-72q-185 -64 -371 -64q-137 0 -218.5 78.5t-81.5 220zM335 607h141q264 0 386.5 56.5 t122.5 209.5t-205 153q-314 0 -445 -419zM544 1215l314 291h30l187 -291h-73l-138 217l-236 -217h-84zM595 1650q125 98 190 98q41 0 140 -54.5t120 -54.5q41 0 123 64l28 24l10 -65q-108 -92 -170 -92q-38 0 -141 54.5t-125 54.5q-39 0 -138 -73l-32 -24z" />
<glyph unicode="&#x1ed7;" horiz-adv-x="1059" d="M213 299q0 335 155 565t383 230q340 0 339 -337q0 -331 -152.5 -553.5t-395.5 -222.5q-329 0 -329 318zM290 299q0 -250 252 -250q209 0 340 205.5t131 502.5q0 123 -65.5 196t-196.5 73q-200 0 -330.5 -214.5t-130.5 -512.5zM544 1215l314 291h30l187 -291h-73l-138 217 l-236 -217h-84zM622 1650q125 98 189 98q41 0 139.5 -54.5t120.5 -54.5q41 0 123 64l27 24l12 -65q-108 -92 -170 -92q-39 0 -142.5 54.5t-124.5 54.5q-39 0 -138 -73l-32 -24z" />
<glyph unicode="&#x1ef2;" horiz-adv-x="1042" d="M383 1506h77l221 -777l581 777h86l-647 -859l-151 -647h-76l152 663zM701 1914l36 58l345 -209l-33 -47z" />
<glyph unicode="&#x1ef3;" horiz-adv-x="962" d="M230 -490l265 490h-125l-54 1075h78l49 -1006h86l534 1006h81l-832 -1565h-82zM499 1496l39 55l344 -205l-39 -47z" />
<glyph unicode="&#x1ef8;" horiz-adv-x="1042" d="M383 1506h77l221 -777l581 777h86l-647 -859l-151 -647h-76l152 663zM636 1865q125 99 189 99q41 0 140.5 -55.5t120.5 -55.5q41 0 123 65l28 23l10 -64q-108 -92 -170 -92q-39 0 -141.5 54.5t-127.5 54.5q-36 0 -135 -72l-33 -24z" />
<glyph unicode="&#x1ef9;" horiz-adv-x="962" d="M230 -490l265 490h-125l-54 1075h78l49 -1006h86l534 1006h81l-832 -1565h-82zM509 1434q125 99 190 99q41 0 140 -54.5t120 -54.5q41 0 123 64l28 24l10 -65q-108 -93 -170 -93q-39 0 -141.5 55.5t-124.5 55.5q-39 0 -138 -74l-33 -23z" />
<glyph unicode="&#x2000;" horiz-adv-x="1130" />
<glyph unicode="&#x2001;" horiz-adv-x="2260" />
<glyph unicode="&#x2002;" horiz-adv-x="1130" />
<glyph unicode="&#x2003;" horiz-adv-x="2260" />
<glyph unicode="&#x2004;" horiz-adv-x="753" />
<glyph unicode="&#x2005;" horiz-adv-x="565" />
<glyph unicode="&#x2006;" horiz-adv-x="376" />
<glyph unicode="&#x2007;" horiz-adv-x="376" />
<glyph unicode="&#x2008;" horiz-adv-x="282" />
<glyph unicode="&#x2009;" horiz-adv-x="452" />
<glyph unicode="&#x200a;" horiz-adv-x="125" />
<glyph unicode="&#x2010;" horiz-adv-x="823" d="M275 542l18 75h524l-19 -75h-523z" />
<glyph unicode="&#x2011;" horiz-adv-x="823" d="M275 542l18 75h524l-19 -75h-523z" />
<glyph unicode="&#x2012;" horiz-adv-x="823" d="M275 542l18 75h524l-19 -75h-523z" />
<glyph unicode="&#x2013;" horiz-adv-x="1375" d="M284 542v73h1075v-73h-1075z" />
<glyph unicode="&#x2014;" horiz-adv-x="2450" d="M284 542v73h2150v-73h-2150z" />
<glyph unicode="&#x2018;" horiz-adv-x="396" d="M368 1071l200 435h58l-177 -435h-81z" />
<glyph unicode="&#x2019;" horiz-adv-x="396" d="M374 1071l176 435h82l-199 -435h-59z" />
<glyph unicode="&#x201a;" horiz-adv-x="401" d="M43 -245l176 434h82l-200 -434h-58z" />
<glyph unicode="&#x201c;" horiz-adv-x="691" d="M368 1071l200 435h58l-177 -435h-81zM663 1071l199 435h59l-177 -435h-81z" />
<glyph unicode="&#x201d;" horiz-adv-x="691" d="M374 1071l176 435h82l-199 -435h-59zM669 1071l176 435h82l-200 -435h-58z" />
<glyph unicode="&#x201e;" horiz-adv-x="665" d="M28 -240l200 433h58l-177 -433h-81zM308 -240l199 433h59l-176 -433h-82z" />
<glyph unicode="&#x2020;" horiz-adv-x="941" d="M290 989l20 82l367 -4l103 435h72l-99 -431h372l-21 -82l-373 4l-273 -1161h-71l271 1157h-368z" />
<glyph unicode="&#x2021;" horiz-adv-x="1046" d="M174 262l17 78l373 -5l152 654h-367l19 82l367 -4l104 435h70l-98 -431h371l-21 -82l-371 4l-154 -653h370l-19 -78l-370 5l-100 -435h-72l101 430h-372z" />
<glyph unicode="&#x2022;" horiz-adv-x="1081" d="M398 236v624h538v-624h-538z" />
<glyph unicode="&#x2026;" horiz-adv-x="1414" d="M158 0l39 178h78l-41 -178h-76zM675 0l41 178h78l-41 -178h-78zM1182 0l41 178h78l-41 -178h-78z" />
<glyph unicode="&#x202f;" horiz-adv-x="452" />
<glyph unicode="&#x2030;" horiz-adv-x="1730" d="M342 1091q0 57 17 130q74 286 293 287q168 0 167 -166q0 -52 -17 -123q-37 -148 -116 -222t-181.5 -74t-143.5 75q-19 36 -19 93zM353 17l767 1491l66 -18l-767 -1488zM417 1110q0 -119 106 -119q148 0 204 228q16 64 17 110q-1 109 -110 109q-146 0 -193 -193 q-24 -88 -24 -135zM712 171q0 57 17 128q73 286 293 286q168 0 168 -166q0 -51 -18 -122q-37 -148 -115 -222.5t-180.5 -74.5t-143.5 74q-21 40 -21 97zM790 189q0 -121 102 -120q149 0 204 228q18 64 18 109q0 110 -110 111q-78 0 -124.5 -53t-68 -141.5t-21.5 -133.5z M1266.5 171q-0.5 57 17.5 128q73 286 292 286q168 0 168 -166q0 -51 -17 -122q-37 -148 -115.5 -222.5t-180.5 -74.5t-143 74q-21 40 -21.5 97zM1344 189q0 -121 103 -120q148 0 205 228q16 64 16 109q0 110 -109 111q-77 0 -124.5 -53t-69 -141.5t-21.5 -133.5z" />
<glyph unicode="&#x2039;" horiz-adv-x="584" d="M211 519l17 47l406 275l-25 -88l-310 -217l202 -237l-23 -75z" />
<glyph unicode="&#x203a;" horiz-adv-x="584" d="M197 224l27 88l309 217l-202 236l24 76l267 -295l-18 -47z" />
<glyph unicode="&#x2044;" horiz-adv-x="0" d="M-327 -17l914 1480l71 -31l-914 -1477z" />
<glyph unicode="&#x205f;" horiz-adv-x="565" />
<glyph unicode="&#x2070;" horiz-adv-x="601" d="M349 1200q0 72 23 168q55 220 159 298q67 52 170 52q179 0 179 -191q0 -70 -24 -162q-56 -219 -159 -302q-69 -54 -172 -54q-176 0 -176 191zM430 1209q0 -127 114 -127q82 0 137.5 65.5t87 187t31.5 181.5q0 129 -119 129q-84 0 -138.5 -66.5t-83.5 -188.5t-29 -181z " />
<glyph unicode="&#x2074;" horiz-adv-x="601" d="M331 1151l18 68l309 480h86l-305 -476h224l47 187h78l-48 -187h79l-17 -72h-80l-30 -123h-77l30 123h-314z" />
<glyph unicode="&#x2075;" horiz-adv-x="601" d="M331 1034l26 76q107 -26 183 -26q148 0 189 155q8 33 8 56q0 82 -97 82q-75 0 -139 -35l-21 -13l-67 5l110 365h374l-17 -76h-301l-72 -219q60 47 152 47t137 -51q28 -33 27.5 -75.5t-10.5 -85.5q-60 -230 -275 -230q-86 0 -177 19z" />
<glyph unicode="&#x2076;" horiz-adv-x="601" d="M365 1194q0 73 27 171q47 193 129.5 273t211.5 80q58 0 143 -15l23 -4l-21 -69q-82 14 -165 14.5t-137.5 -51.5t-87.5 -171q97 41 187 41t131 -59q27 -37 27 -78.5t-12 -80.5q-60 -236 -285 -236q-171 0 -171 185zM447 1209q0 -127 107 -127q142 0 186 163q9 39 9 68 t-12 46q-21 30 -79 30t-99 -12q-93 -25 -93 -35q-19 -78 -19 -133z" />
<glyph unicode="&#x2077;" horiz-adv-x="601" d="M392 1034l378 538l12 53h-330l16 74h418l-32 -131l-378 -557z" />
<glyph unicode="&#x2078;" horiz-adv-x="601" d="M322 1144q0 25 13 79q30 113 172 158q-88 37 -88 109q0 21 7 51q43 177 278 177q193 0 193 -124q0 -24 -11 -74q-26 -102 -155 -141q96 -35 96 -109q0 -26 -8 -59q-30 -117 -102 -159.5t-187 -42.5t-161.5 38.5t-46.5 96.5zM408 1166q0 -84 136 -84q162 0 193 127 q4 24 4.5 47.5t-15.5 45t-79 38.5h-77q-71 -17 -106.5 -46.5t-50.5 -93.5q-5 -19 -5 -34zM503 1498.5q0 -21.5 14 -41t72 -37.5h78q71 16 98 43q48 39 48 107q0 32 -24 53.5t-105 21.5q-151 0 -177 -104q-4 -21 -4 -42.5z" />
<glyph unicode="&#x2079;" horiz-adv-x="601" d="M329 1030l24 66q86 -14 166 -14q176 0 236 221q-103 -37 -191 -37t-131 63q-29 37 -29 80.5t11 82.5q26 107 102 166.5t184 59.5q171 0 169 -189q0 -72 -25 -172q-49 -196 -128 -272t-218 -76q-72 0 -146 15zM490 1437q0 -29 15 -54q26 -43 90 -43q56 0 149 34l30 11 q18 73 18 127q0 133 -111 133q-145 0 -184 -151q-7 -28 -7 -57z" />
<glyph unicode="&#x2080;" horiz-adv-x="601" d="M114 172q0 72 24 168q55 220 159 298q66 52 169 52q179 0 179 -191q0 -70 -23 -161q-56 -219 -160 -303q-69 -54 -172 -54q-177 0 -176 191zM195 181q0 -127 115 -127q82 0 137.5 65.5t87 187t31.5 181.5q0 129 -119 129q-84 0 -138.5 -66.5t-84 -188.5t-29.5 -181z" />
<glyph unicode="&#x2081;" horiz-adv-x="601" d="M203 312l246 144h78l-166 -671h-77l146 587l-206 -120z" />
<glyph unicode="&#x2082;" horiz-adv-x="601" d="M39 -215l17 73l266 224q175 144 175 245q0 75 -101 75q-66 0 -168 -19l-33 -7l14 71q119 29 208 29q162 0 162 -121q0 -103 -76 -191q-49 -56 -140 -131l-205 -175h318l-18 -73h-419z" />
<glyph unicode="&#x2083;" horiz-adv-x="601" d="M21 -211l24 69q111 -19 220 -20q135 0 165 125q7 29 7 50q0 81 -102 81h-140l18 74h140q39 0 86 41q62 56 62 126q0 28 -18.5 47.5t-74.5 19.5q-84 0 -193 -15l-30 -4l10 69q121 24 222.5 24t134.5 -34t33 -70.5t-9 -68.5q-31 -118 -146 -168q93 -30 93 -98 q0 -29 -12 -72q-49 -199 -266 -199q-105 0 -191 17z" />
<glyph unicode="&#x2084;" horiz-adv-x="601" d="M66 -92l18 68l310 480h86l-306 -475h224l47 187h78l-47 -187h78l-16 -73h-80l-30 -123h-77l29 123h-314z" />
<glyph unicode="&#x2085;" horiz-adv-x="601" d="M28 -209l26 76q107 -27 182 -27q148 0 190 156q9 32 9 55q0 82 -97 82q-76 0 -141 -34l-21 -13l-67 4l110 366h374l-17 -76h-301l-70 -218q60 47 151 47t136 -51q29 -33 29 -76t-12 -86q-60 -230 -275 -230q-86 0 -176 19z" />
<glyph unicode="&#x2086;" horiz-adv-x="601" d="M78 -47q0 71 23 170q47 193 130 273t212 80q58 0 142 -16l24 -4l-22 -69q-82 15 -164.5 15t-137.5 -51.5t-88 -172.5q97 41 188 41t132 -57q26 -37 25.5 -79t-11.5 -81q-60 -236 -286 -236q-168 0 -167 187zM158 -35q0 -127 107 -127q141 0 184 164q9 39 9 68t-11 47 q-21 30 -79 29.5t-101 -13.5q-91 -24 -91 -34q-18 -78 -18 -134z" />
<glyph unicode="&#x2087;" horiz-adv-x="601" d="M121 -209l378 538l12 54h-330l16 73h418l-32 -132l-378 -556z" />
<glyph unicode="&#x2088;" horiz-adv-x="601" d="M39 -99q0 24 12 80q31 111 173 157q-89 36 -89 110q0 21 7 51q43 177 277 177q193 0 194 -125q0 -24 -11 -74q-27 -103 -155 -142q97 -34 97 -107q0 -26 -8 -61q-31 -116 -103 -158.5t-187 -42.5t-161 38t-46 97zM125 -78q0 -84 135 -84q162 0 194 127q4 25 4 48.5 t-16 45t-79 38.5h-77q-72 -17 -107 -46.5t-50 -93.5q-4 -19 -4 -35zM219 256q0 -22 14.5 -41.5t72.5 -38.5h77q72 17 99 43q47 39 47 108q0 32 -23.5 53.5t-105.5 21.5q-150 0 -176 -103q-5 -21 -5 -43z" />
<glyph unicode="&#x2089;" horiz-adv-x="601" d="M39 -213l23 67q86 -16 166 -16q176 0 236 222q-103 -37 -191 -36.5t-131 62.5q-26 37 -25.5 81t8.5 83q26 107 102 166.5t184 59.5q170 0 170 -190q0 -72 -27 -172q-49 -195 -127 -271.5t-218 -76.5q-71 0 -145 15zM200.5 195q-0.5 -29 14.5 -55q27 -43 91 -43 q55 0 150 34l28 11q17 73 17 127q0 133 -109 133q-146 0 -185 -150q-6 -28 -6.5 -57z" />
<glyph unicode="&#x20ac;" d="M228 488l17 68h95q17 146 60 281h-92l16 68h99q88 238 244 387t369 149q138 0 284 -31l48 -8l-16 -64q-178 34 -339 34t-294.5 -129t-213.5 -338h658l-14 -68h-669q-47 -142 -63 -281h667l-15 -68h-658q-5 -34 -5 -101q0 -172 74 -254t236 -82q142 0 284 31l47 8l-2 -69 q-176 -40 -339 -40q-376 0 -377 406q0 33 4 101h-105z" />
<glyph unicode="&#x2122;" horiz-adv-x="1517" d="M478 1268v68h429v-68h-178v-554h-71v554h-180zM983 712v624h107l180 -521l188 521h108v-624h-70v554l-189 -531h-74l-182 531v-554h-68z" />
<glyph unicode="&#x2126;" d="M189 -19v73h320q-28 53 -70.5 141.5t-113.5 287t-71 313.5q0 338 92.5 491.5t357 153.5t357 -154t92.5 -491q0 -115 -64.5 -300.5t-129.5 -314.5l-64 -127h322v-73h-406v62q98 189 179 411.5t81 334.5t-7.5 197t-30 163t-61.5 124q-88 94 -268 95q-183 0 -269 -95 q-99 -110 -100 -499q0 -97 64.5 -279.5t129.5 -318.5l66 -133v-62h-406z" />
<glyph unicode="&#x2202;" d="M306 460q0 205 118 329.5t320 124.5q84 0 186 -18t162 -36l59 -19q-4 355 -99 515t-308 160q-69 0 -155 -27.5t-137 -56.5l-52 -28l-8 69q21 13 55.5 32.5t131 51.5t178.5 32q241 0 357 -185t116 -604.5t-109.5 -619t-352.5 -199.5q-462 0 -462 479zM383 447.5 q0 -182.5 100 -288t293.5 -105.5t283 175t93.5 536q-230 76 -402 76t-270 -105.5t-98 -288z" />
<glyph unicode="&#x2206;" d="M187 0v56l392 1364h163l391 -1364l2 -56h-948zM273 74h772l-359 1272h-54z" />
<glyph unicode="&#x220f;" d="M295 1539v74h1075v-74h-172v-1863h-78v1863h-576v-1863h-78v1863h-171z" />
<glyph unicode="&#x2211;" d="M265 -164l615 839l-615 778v158h968v-74h-889v-58l610 -773v-66l-610 -823v-69h889v-72h-968v160z" />
<glyph unicode="&#x2212;" d="M273 503v73h907v-73h-907z" />
<glyph unicode="&#x221a;" d="M265 895v73h199l328 -1200h16l579 1884h80l-605 -1953h-129l-337 1196h-131z" />
<glyph unicode="&#x221e;" d="M213 628q0 174 61 270.5t177.5 96.5t180 -67.5t115.5 -205.5q51 138 113.5 205.5t179.5 67.5t178.5 -96.5t61.5 -270.5q0 -368 -250 -368q-109 0 -170.5 68t-112.5 203q-54 -161 -110 -216t-175 -55q-250 0 -249 368zM294.5 628q0.5 -293 165.5 -293q60 0 83 12 t35.5 16.5t27 24.5t21.5 29t21.5 41t18.5 45q24 56 47 125q-78 207 -129 250q-56 43 -125 43q-166 0 -165.5 -293zM778 628q78 -207 129 -250q56 -43 125 -43q166 0 166 293t-166 293q-109 0 -166 -98q-41 -69 -88 -195z" />
<glyph unicode="&#x222b;" d="M335 -374l5 71q103 -11 171 -11q110 0 154.5 69t44.5 245v1213q0 252 68.5 357t204.5 105l178 -13l-4 -68q-88 10 -180.5 10t-142 -88t-49.5 -303v-1213q0 -213 -62.5 -299t-211.5 -86z" />
<glyph unicode="&#x2248;" d="M269 355q133 116 240 116q64 0 223.5 -78.5t198.5 -78.5q72 0 187 84l39 28l23 -67q-135 -119 -242 -119q-64 0 -224 79t-198 79t-93 -28t-92 -56l-38 -28zM269 704q133 116 240 115q64 0 223.5 -78t198.5 -78q72 0 187 84l39 27l23 -66q-135 -119 -242 -119 q-64 0 -224 79t-198 79t-93 -28.5t-92 -55.5l-38 -29z" />
<glyph unicode="&#x2260;" d="M269 320v74h331l127 290h-458v73h490l146 337l69 -27l-135 -310h341v-73h-374l-127 -290h501v-74h-533l-146 -339l-68 27l135 312h-299z" />
<glyph unicode="&#x2264;" d="M234 51v74h913v-74h-913zM234 624v77l913 342v-84l-814 -294l814 -319v-84z" />
<glyph unicode="&#x2265;" d="M267 51v74h911v-74h-911zM267 262v84l812 319l-812 294v84l911 -342v-77z" />
<glyph unicode="&#x25ca;" d="M290 714l391 706h164l392 -706l-392 -714h-164zM380 714l353 -640h59l355 640l-355 632h-59z" />
<glyph unicode="&#x25fc;" horiz-adv-x="1075" d="M0 0v1075h1075v-1075h-1075z" />
<glyph unicode="&#xf6be;" horiz-adv-x="390" d="M-213 -449q211 105 267 172.5t104 276.5l248 1075h76l-250 -1075q-58 -248 -122.5 -326t-296.5 -187z" />
<glyph unicode="&#xf6c3;" horiz-adv-x="345" d="M-49 -570l172 412h72l-189 -412h-55z" />
<glyph horiz-adv-x="864" d="M152 218.5q0 119.5 37 198t103.5 144t232 201t189.5 255.5l17 84h73q-4 -47 -12 -92q-31 -150 -231 -311.5t-263.5 -249t-63.5 -222.5q0 -172 258 -172q105 0 261 36l51 11v-68q-187 -52 -330 -52t-232.5 59t-89.5 178.5zM761 1327l39 177h78l-37 -177h-80z" />
<glyph horiz-adv-x="1373" d="M297 607v72h1075v-72h-1075z" />
<glyph horiz-adv-x="2448" d="M297 607v72h2151v-72h-2151z" />
<glyph horiz-adv-x="390" d="M303 645l39 178h81l-38 -178h-82z" />
<glyph horiz-adv-x="442" d="M187 0l254 1051h60l-243 -1051h-71zM482 1327l41 179h77l-41 -179h-77z" />
<glyph horiz-adv-x="474" d="M232 223.5q0 256.5 48.5 473.5t119.5 382q142 345 258 521l48 73h74q-73 -112 -158.5 -284t-148 -330t-114 -374.5t-51.5 -376.5q0 -300 23 -458l7 -53h-71q-35 170 -35 426.5z" />
<glyph horiz-adv-x="478" d="M41 -189q73 111 159 283.5t148.5 330.5t113.5 374t51 377q0 299 -23 458l-6 52h70q35 -170 35 -426t-48.5 -473t-119.5 -383q-142 -344 -257 -521l-47 -72h-76z" />
<glyph horiz-adv-x="638" d="M125 -197l439 1868h372l-15 -71h-299l-407 -1727h298l-18 -70h-370z" />
<glyph horiz-adv-x="634" d="M41 -195l15 70h299l406 1727h-299l20 71h370l-439 -1868h-372z" />
<glyph horiz-adv-x="708" d="M222 692l16 76q142 38 197 98.5t82 189.5q6 31 16 93q21 131 43 197q54 166 152.5 243t280.5 86l-14 -77q-170 -8 -251 -82.5t-114 -229.5q-6 -34 -21.5 -122.5t-23.5 -125.5q-31 -139 -87.5 -202.5t-175.5 -102.5q138 -49 138 -187q0 -39 -53.5 -227t-53.5 -263 q0 -179 234 -179l-21 -77q-150 7 -219.5 63.5t-69.5 153.5t54 285t54 221q0 73 -38.5 110.5t-124.5 58.5z" />
<glyph horiz-adv-x="710" d="M41 -207l13 78q170 8 251.5 82.5t113.5 229.5q6 34 21.5 122.5t23.5 124.5q31 140 88 203.5t175 101.5q-138 50 -138 188q0 39 54 227t54 263q0 179 -235 179l22 76q150 -6 219 -62.5t69 -154t-53.5 -285t-53.5 -220.5q0 -73 38.5 -110.5t123.5 -59.5l-16 -75 q-142 -38 -197 -98.5t-81 -189.5q-6 -31 -16 -95q-21 -129 -43 -195q-54 -166 -153 -243t-280 -87z" />
</font>
</defs>
</svg>
